<svg xmlns="http://www.w3.org/2000/svg" xmlns:ev="http://www.w3.org/2001/xml-events" xmlns:xlink="http://www.w3.org/1999/xlink" width="1132" height="804" viewBox="0 0 1132 804"><g id="page1" transform="translate(5.5,5.5)"><rect width="1123" height="794" x="0" y="0" fill="#fff"/><g id="group1" transform="translate(479.201500,196.059000)"><g id="group2" transform="translate(0.000000,67.133600)"><path id="shape3" fill="#d6d8df" fill-rule="nonzero" stroke="#d6d8df" stroke-width=".5" d="M.0,.0L87.9,48.1L87.9,71.3L.0,23.2L.0,.0z" transform="translate(0.000000,44.029900)"/><path id="shape4" fill="#caccd3" fill-rule="nonzero" stroke="#caccd3" stroke-width=".5" d="M.0,.0L81.8,44.2L81.8,67.4L.0,23.2L.0,.0z" transform="matrix(-1.000000,0.000000,0.000000,1.000000,169.683500,47.935700)"/><path id="shape5" fill="#e2e4e9" fill-rule="nonzero" stroke="#e2e4e9" stroke-width=".5" d="M87.9,92.1L.0,44.0L81.8,.0L169.7,47.9L87.9,92.1z"/><path id="shape6" fill="#01acac" fill-rule="nonzero" stroke="#01acac" stroke-width=".25" d="M.0,5.5C-0.2,2.7,1.3,.2,3.5,.0C5.6,-0.2,7.5,2.0,7.8,4.8C8.0,7.6,6.5,10.1,4.4,10.3C2.2,10.5,.3,8.3,.0,5.5z" transform="matrix(0.999391,-0.034899,0.034899,0.999391,74.867449,95.020850)"/><path id="shape7" fill="#76d7d7" fill-rule="nonzero" stroke="#76d7d7" stroke-width=".48" d="M.0,4.4C-0.2,2.1,1.1,.2,2.8,.0C4.5,-0.1,6.0,1.6,6.2,3.8C6.4,6.1,5.2,8.0,3.5,8.2C1.8,8.3,.2,6.6,.0,4.4z" transform="matrix(0.999391,-0.034899,0.034899,0.999391,75.694338,96.032048)"/><path id="shape8" fill="#fff" fill-opacity=".29" fill-rule="nonzero" d="M.0,3.7C-0.1,2.2,.4,.8,1.3,.0C1.3,.0,5.1,6.8,5.1,6.8C4.7,7.2,4.1,7.5,3.5,7.5C1.8,7.7,.3,6.0,.0,3.7z" transform="matrix(0.999391,-0.034899,0.034899,0.999391,75.678007,96.674729)"/><path id="shape9" fill="none" stroke="#000" stroke-dasharray="11 5 2.5 5 2.5 5" stroke-width="1" d="M.0,39.2L72.7,.0" transform="translate(92.701800,59.590600)"/><path id="shape10" fill="none" stroke="#000" stroke-dasharray="11 5 2.5 5 2.5 5" stroke-width="1" d="M.0,39.2L72.7,.0" transform="translate(92.701800,63.766700)"/><g id="group11" transform="translate(9.483900,54.110600)"><path id="shape12" fill="#fff" fill-rule="nonzero" stroke="#fff" stroke-width="1" d="M.0,.0L21.4,11.5L21.4,23.4L.0,11.4L.0,.0z"/><path id="shape13" fill="#5fb7f1" fill-rule="nonzero" stroke="#5fb7f1" stroke-width="1" d="M.0,.0L19.3,10.5L19.3,19.6L.0,8.9L.0,.0z" transform="translate(0.888810,1.866510)"/><path id="shape14" fill="#fff" fill-opacity=".29" fill-rule="nonzero" d="M.0,.0L18.5,9.9L18.5,18.2L.0,8.0L.0,.0z" transform="translate(1.337980,2.614260)"/></g><g id="group15" transform="translate(41.332900,72.405800)"><path id="shape16" fill="#fff" fill-rule="nonzero" stroke="#fff" stroke-width="1" d="M.0,.0L21.4,11.5L21.4,23.4L.0,11.4L.0,.0z"/><path id="shape17" fill="#5fb7f1" fill-rule="nonzero" stroke="#5fb7f1" stroke-width="1" d="M.0,.0L19.3,10.5L19.3,19.6L.0,8.9L.0,.0z" transform="translate(0.888810,1.866510)"/><path id="shape18" fill="#fff" fill-opacity=".29" fill-rule="nonzero" d="M.0,.0L18.5,9.9L18.5,18.2L.0,8.0L.0,.0z" transform="translate(1.337980,2.614260)"/></g></g><g id="group19" transform="translate(0.000000,33.566600)"><path id="shape20" fill="#d6d8df" fill-rule="nonzero" stroke="#d6d8df" stroke-width=".5" d="M.0,.0L87.9,48.1L87.9,71.3L.0,23.2L.0,.0z" transform="translate(0.000000,44.029900)"/><path id="shape21" fill="#caccd3" fill-rule="nonzero" stroke="#caccd3" stroke-width=".5" d="M.0,.0L81.8,44.2L81.8,67.4L.0,23.2L.0,.0z" transform="matrix(-1.000000,0.000000,0.000000,1.000000,169.683500,47.935700)"/><path id="shape22" fill="#e2e4e9" fill-rule="nonzero" stroke="#e2e4e9" stroke-width=".5" d="M87.9,92.1L.0,44.0L81.8,.0L169.7,47.9L87.9,92.1z"/><path id="shape23" fill="#01acac" fill-rule="nonzero" stroke="#01acac" stroke-width=".25" d="M.0,5.5C-0.2,2.7,1.3,.2,3.5,.0C5.6,-0.2,7.5,2.0,7.8,4.8C8.0,7.6,6.5,10.1,4.4,10.3C2.2,10.5,.3,8.3,.0,5.5z" transform="matrix(0.999391,-0.034899,0.034899,0.999391,74.867449,95.020850)"/><path id="shape24" fill="#76d7d7" fill-rule="nonzero" stroke="#76d7d7" stroke-width=".48" d="M.0,4.4C-0.2,2.1,1.1,.2,2.8,.0C4.5,-0.1,6.0,1.6,6.2,3.8C6.4,6.1,5.2,8.0,3.5,8.2C1.8,8.3,.2,6.6,.0,4.4z" transform="matrix(0.999391,-0.034899,0.034899,0.999391,75.694338,96.032048)"/><path id="shape25" fill="#fff" fill-opacity=".29" fill-rule="nonzero" d="M.0,3.7C-0.1,2.2,.4,.8,1.3,.0C1.3,.0,5.1,6.8,5.1,6.8C4.7,7.2,4.1,7.5,3.5,7.5C1.8,7.7,.3,6.0,.0,3.7z" transform="matrix(0.999391,-0.034899,0.034899,0.999391,75.678007,96.674729)"/><path id="shape26" fill="none" stroke="#000" stroke-dasharray="11 5 2.5 5 2.5 5" stroke-width="1" d="M.0,39.2L72.7,.0" transform="translate(92.701800,59.590600)"/><path id="shape27" fill="none" stroke="#000" stroke-dasharray="11 5 2.5 5 2.5 5" stroke-width="1" d="M.0,39.2L72.7,.0" transform="translate(92.701800,63.766700)"/><g id="group28" transform="translate(9.483900,54.110600)"><path id="shape29" fill="#fff" fill-rule="nonzero" stroke="#fff" stroke-width="1" d="M.0,.0L21.4,11.5L21.4,23.4L.0,11.4L.0,.0z"/><path id="shape30" fill="#5fb7f1" fill-rule="nonzero" stroke="#5fb7f1" stroke-width="1" d="M.0,.0L19.3,10.5L19.3,19.6L.0,8.9L.0,.0z" transform="translate(0.888810,1.866510)"/><path id="shape31" fill="#fff" fill-opacity=".29" fill-rule="nonzero" d="M.0,.0L18.5,9.9L18.5,18.2L.0,8.0L.0,.0z" transform="translate(1.337980,2.614260)"/></g><g id="group32" transform="translate(41.332900,72.405800)"><path id="shape33" fill="#fff" fill-rule="nonzero" stroke="#fff" stroke-width="1" d="M.0,.0L21.4,11.5L21.4,23.4L.0,11.4L.0,.0z"/><path id="shape34" fill="#5fb7f1" fill-rule="nonzero" stroke="#5fb7f1" stroke-width="1" d="M.0,.0L19.3,10.5L19.3,19.6L.0,8.9L.0,.0z" transform="translate(0.888810,1.866510)"/><path id="shape35" fill="#fff" fill-opacity=".29" fill-rule="nonzero" d="M.0,.0L18.5,9.9L18.5,18.2L.0,8.0L.0,.0z" transform="translate(1.337980,2.614260)"/></g></g><g id="group36"><path id="shape37" fill="#d6d8df" fill-rule="nonzero" stroke="#d6d8df" stroke-width=".5" d="M.0,.0L87.9,48.1L87.9,71.3L.0,23.2L.0,.0z" transform="translate(0.000000,44.029900)"/><path id="shape38" fill="#caccd3" fill-rule="nonzero" stroke="#caccd3" stroke-width=".5" d="M.0,.0L81.8,44.2L81.8,67.4L.0,23.2L.0,.0z" transform="matrix(-1.000000,0.000000,0.000000,1.000000,169.683500,47.935700)"/><path id="shape39" fill="#e2e4e9" fill-rule="nonzero" stroke="#e2e4e9" stroke-width=".5" d="M87.9,92.1L.0,44.0L81.8,.0L169.7,47.9L87.9,92.1z"/><path id="shape40" fill="#01acac" fill-rule="nonzero" stroke="#01acac" stroke-width=".25" d="M.0,5.5C-0.2,2.7,1.3,.2,3.5,.0C5.6,-0.2,7.5,2.0,7.8,4.8C8.0,7.6,6.5,10.1,4.4,10.3C2.2,10.5,.3,8.3,.0,5.5z" transform="matrix(0.999391,-0.034899,0.034899,0.999391,74.867449,95.020850)"/><path id="shape41" fill="#76d7d7" fill-rule="nonzero" stroke="#76d7d7" stroke-width=".48" d="M.0,4.4C-0.2,2.1,1.1,.2,2.8,.0C4.5,-0.1,6.0,1.6,6.2,3.8C6.4,6.1,5.2,8.0,3.5,8.2C1.8,8.3,.2,6.6,.0,4.4z" transform="matrix(0.999391,-0.034899,0.034899,0.999391,75.694338,96.032048)"/><path id="shape42" fill="#fff" fill-opacity=".29" fill-rule="nonzero" d="M.0,3.7C-0.1,2.2,.4,.8,1.3,.0C1.3,.0,5.1,6.8,5.1,6.8C4.7,7.2,4.1,7.5,3.5,7.5C1.8,7.7,.3,6.0,.0,3.7z" transform="matrix(0.999391,-0.034899,0.034899,0.999391,75.678007,96.674729)"/><path id="shape43" fill="none" stroke="#000" stroke-dasharray="11 5 2.5 5 2.5 5" stroke-width="1" d="M.0,39.2L72.7,.0" transform="translate(92.701800,59.590600)"/><path id="shape44" fill="none" stroke="#000" stroke-dasharray="11 5 2.5 5 2.5 5" stroke-width="1" d="M.0,39.2L72.7,.0" transform="translate(92.701800,63.766700)"/><g id="group45" transform="translate(9.483900,54.110600)"><path id="shape46" fill="#fff" fill-rule="nonzero" stroke="#fff" stroke-width="1" d="M.0,.0L21.4,11.5L21.4,23.4L.0,11.4L.0,.0z"/><path id="shape47" fill="#5fb7f1" fill-rule="nonzero" stroke="#5fb7f1" stroke-width="1" d="M.0,.0L19.3,10.5L19.3,19.6L.0,8.9L.0,.0z" transform="translate(0.888810,1.866510)"/><path id="shape48" fill="#fff" fill-opacity=".29" fill-rule="nonzero" d="M.0,.0L18.5,9.9L18.5,18.2L.0,8.0L.0,.0z" transform="translate(1.337980,2.614260)"/></g><g id="group49" transform="translate(41.332900,72.405800)"><path id="shape50" fill="#fff" fill-rule="nonzero" stroke="#fff" stroke-width="1" d="M.0,.0L21.4,11.5L21.4,23.4L.0,11.4L.0,.0z"/><path id="shape51" fill="#5fb7f1" fill-rule="nonzero" stroke="#5fb7f1" stroke-width="1" d="M.0,.0L19.3,10.5L19.3,19.6L.0,8.9L.0,.0z" transform="translate(0.888810,1.866510)"/><path id="shape52" fill="#fff" fill-opacity=".29" fill-rule="nonzero" d="M.0,.0L18.5,9.9L18.5,18.2L.0,8.0L.0,.0z" transform="translate(1.337980,2.614260)"/></g></g></g><g id="group53" transform="translate(25.292862,356.802000)"><g id="group54" transform="translate(161.575200,-0.000100)"><g id="group55" transform="translate(0.000000,14.714400)"><path id="shape56" fill="#d6d8df" fill-rule="nonzero" stroke="#d6d8df" stroke-width=".5" d="M.0,.0L54.7,21.4L54.7,30.7L.0,9.3L.0,.0z" transform="translate(0.000000,19.592600)"/><path id="shape57" fill="none" stroke="#000" stroke-dasharray="3.8 1.2" stroke-width="1" d="M.0,.0L47.9,18.9" transform="translate(0.217800,24.714470)"/><path id="shape58" fill="#fff" fill-rule="nonzero" stroke="#fff" stroke-width="1" d="M.0,.0L10.8,4.2L10.8,8.4L.0,4.1L.0,.0z" transform="translate(21.105950,30.860070)"/><path id="shape59" fill="#caccd3" fill-rule="nonzero" stroke="#caccd3" stroke-width=".5" d="M.0,.0L50.9,19.6L50.9,29.0L.0,9.3L.0,.0z" transform="matrix(-1.000000,0.000000,0.000000,1.000000,105.549600,21.330700)"/><path id="shape60" fill="#e2e4e9" fill-rule="nonzero" stroke="#e2e4e9" stroke-width=".5" d="M54.7,41.0L.0,19.6L50.9,.0L105.5,21.3L54.7,41.0z"/><path id="shape61" fill="#62bc85" fill-rule="nonzero" stroke="#62bc85" stroke-width="1" d="M.0,.0L9.7,3.8L9.7,7.1L.0,3.2L.0,.0z" transform="translate(21.553860,31.533130)"/><path id="shape62" fill="#e85464" fill-rule="nonzero" stroke="#e85464" stroke-width=".25" d="M.0,2.4C-0.1,1.2,.8,.1,2.2,.0C3.5,-0.1,4.7,.9,4.9,2.1C5.0,3.4,4.1,4.5,2.7,4.6C1.4,4.7,.2,3.7,.0,2.4z" transform="matrix(0.999391,-0.034899,0.034899,0.999391,46.596162,41.291887)"/><path id="shape63" fill="#ff7878" fill-rule="nonzero" stroke="#ff7878" stroke-width=".48" d="M.0,2.0C-0.1,.9,.7,.1,1.7,.0C2.8,-0.1,3.8,.7,3.9,1.7C4.0,2.7,3.2,3.6,2.2,3.7C1.1,3.7,.1,3.0,.0,2.0z" transform="matrix(0.999391,-0.034899,0.034899,0.999391,47.105329,41.738099)"/><path id="shape64" fill="#fff" fill-opacity=".12" fill-rule="nonzero" d="M.0,1.7C-0.0,1.0,.3,.4,.8,.0C.8,.0,3.2,3.0,3.2,3.0C2.9,3.2,2.6,3.3,2.2,3.4C1.1,3.4,.2,2.7,.0,1.7z" transform="matrix(0.999391,-0.034899,0.034899,0.999391,47.094033,42.021278)"/><path id="shape65" fill="#fff" fill-opacity=".29" fill-rule="nonzero" d="M.0,.0L9.3,3.6L9.3,6.6L.0,2.9L.0,.0z" transform="translate(21.780240,31.802750)"/></g><g id="group66"><path id="shape67" fill="#d6d8df" fill-rule="nonzero" stroke="#d6d8df" stroke-width=".5" d="M.0,.0L54.7,21.4L54.7,30.7L.0,9.3L.0,.0z" transform="translate(0.000000,19.592600)"/><path id="shape68" fill="none" stroke="#000" stroke-dasharray="3.8 1.2" stroke-width="1" d="M.0,.0L47.9,18.9" transform="translate(0.217800,24.714470)"/><path id="shape69" fill="#fff" fill-rule="nonzero" stroke="#fff" stroke-width="1" d="M.0,.0L10.8,4.2L10.8,8.4L.0,4.1L.0,.0z" transform="translate(21.105950,30.860070)"/><path id="shape70" fill="#caccd3" fill-rule="nonzero" stroke="#caccd3" stroke-width=".5" d="M.0,.0L50.9,19.6L50.9,29.0L.0,9.3L.0,.0z" transform="matrix(-1.000000,0.000000,0.000000,1.000000,105.549600,21.330700)"/><path id="shape71" fill="#e2e4e9" fill-rule="nonzero" stroke="#e2e4e9" stroke-width=".5" d="M54.7,41.0L.0,19.6L50.9,.0L105.5,21.3L54.7,41.0z"/><path id="shape72" fill="#62bc85" fill-rule="nonzero" stroke="#62bc85" stroke-width="1" d="M.0,.0L9.7,3.8L9.7,7.1L.0,3.2L.0,.0z" transform="translate(21.553860,31.533130)"/><path id="shape73" fill="#e85464" fill-rule="nonzero" stroke="#e85464" stroke-width=".25" d="M.0,2.4C-0.1,1.2,.8,.1,2.2,.0C3.5,-0.1,4.7,.9,4.9,2.1C5.0,3.4,4.1,4.5,2.7,4.6C1.4,4.7,.2,3.7,.0,2.4z" transform="matrix(0.999391,-0.034899,0.034899,0.999391,46.596162,41.291887)"/><path id="shape74" fill="#ff7878" fill-rule="nonzero" stroke="#ff7878" stroke-width=".48" d="M.0,2.0C-0.1,.9,.7,.1,1.7,.0C2.8,-0.1,3.8,.7,3.9,1.7C4.0,2.7,3.2,3.6,2.2,3.7C1.1,3.7,.1,3.0,.0,2.0z" transform="matrix(0.999391,-0.034899,0.034899,0.999391,47.105329,41.738099)"/><path id="shape75" fill="#fff" fill-opacity=".12" fill-rule="nonzero" d="M.0,1.7C-0.0,1.0,.3,.4,.8,.0C.8,.0,3.2,3.0,3.2,3.0C2.9,3.2,2.6,3.3,2.2,3.4C1.1,3.4,.2,2.7,.0,1.7z" transform="matrix(0.999391,-0.034899,0.034899,0.999391,47.094033,42.021278)"/><path id="shape76" fill="#fff" fill-opacity=".29" fill-rule="nonzero" d="M.0,.0L9.3,3.6L9.3,6.6L.0,2.9L.0,.0z" transform="translate(21.780240,31.802750)"/></g></g><g id="group77" transform="translate(154.745500,108.602100)"><path id="shape78" fill="#d6d8df" fill-rule="nonzero" stroke="#d6d8df" stroke-width=".5" d="M.0,.0L61.7,24.1L61.7,34.5L.0,10.5L.0,.0z" transform="translate(0.000000,22.047500)"/><path id="shape79" fill="none" stroke="#000" stroke-dasharray="3.8 1.2" stroke-width="1" d="M.0,.0L54.1,21.3" transform="translate(0.246000,27.811100)"/><path id="shape80" fill="#fff" fill-rule="nonzero" stroke="#fff" stroke-width="1" d="M.0,.0L12.2,4.7L12.2,9.5L.0,4.6L.0,.0z" transform="translate(23.837290,34.726770)"/><path id="shape81" fill="#caccd3" fill-rule="nonzero" stroke="#caccd3" stroke-width=".5" d="M.0,.0L57.5,22.1L57.5,32.6L.0,10.5L.0,.0z" transform="matrix(-1.000000,0.000000,0.000000,1.000000,119.209000,24.003300)"/><path id="shape82" fill="#e2e4e9" fill-rule="nonzero" stroke="#e2e4e9" stroke-width=".5" d="M61.7,46.1L.0,22.0L57.5,.0L119.2,24.0L61.7,46.1z"/><path id="shape83" fill="#62bc85" fill-rule="nonzero" stroke="#62bc85" stroke-width="1" d="M.0,.0L11.0,4.2L11.0,8.0L.0,3.6L.0,.0z" transform="translate(24.343180,35.484170)"/><path id="shape84" fill="#e85464" fill-rule="nonzero" stroke="#e85464" stroke-width=".25" d="M.0,2.8C-0.2,1.3,.9,.1,2.4,.0C3.9,-0.1,5.3,1.0,5.5,2.4C5.7,3.8,4.6,5.1,3.1,5.2C1.6,5.2,.2,4.2,.0,2.8z" transform="matrix(0.999391,-0.034899,0.034899,0.999391,52.626589,46.465907)"/><path id="shape85" fill="#ff7878" fill-rule="nonzero" stroke="#ff7878" stroke-width=".48" d="M.0,2.2C-0.1,1.1,.7,.1,1.9,.0C3.1,-0.1,4.2,.8,4.4,1.9C4.5,3.1,3.6,4.0,2.4,4.1C1.2,4.2,.2,3.3,.0,2.2z" transform="matrix(0.999391,-0.034899,0.034899,0.999391,53.201576,46.968006)"/><path id="shape86" fill="#fff" fill-opacity=".12" fill-rule="nonzero" d="M.0,1.9C-0.1,1.1,.3,.4,.9,.0C.9,.0,3.6,3.4,3.6,3.4C3.3,3.6,2.9,3.8,2.5,3.8C1.3,3.9,.2,3.0,.0,1.9z" transform="matrix(0.999391,-0.034899,0.034899,0.999391,53.188828,47.286509)"/><path id="shape87" fill="#fff" fill-opacity=".29" fill-rule="nonzero" d="M.0,.0L10.5,4.0L10.5,7.4L.0,3.3L.0,.0z" transform="translate(24.598830,35.787590)"/></g><g id="group88" transform="translate(-0.000200,60.419600)"><path id="shape89" fill="#d6d8df" fill-rule="nonzero" stroke="#d6d8df" stroke-width=".5" d="M.0,.0L61.7,24.1L61.7,34.5L.0,10.5L.0,.0z" transform="translate(0.000000,22.047500)"/><path id="shape90" fill="none" stroke="#000" stroke-dasharray="3.8 1.2" stroke-width="1" d="M.0,.0L54.1,21.3" transform="translate(0.246000,27.811100)"/><path id="shape91" fill="#fff" fill-rule="nonzero" stroke="#fff" stroke-width="1" d="M.0,.0L12.2,4.7L12.2,9.5L.0,4.6L.0,.0z" transform="translate(23.837290,34.726770)"/><path id="shape92" fill="#caccd3" fill-rule="nonzero" stroke="#caccd3" stroke-width=".5" d="M.0,.0L57.5,22.1L57.5,32.6L.0,10.5L.0,.0z" transform="matrix(-1.000000,0.000000,0.000000,1.000000,119.209000,24.003300)"/><path id="shape93" fill="#e2e4e9" fill-rule="nonzero" stroke="#e2e4e9" stroke-width=".5" d="M61.7,46.1L.0,22.0L57.5,.0L119.2,24.0L61.7,46.1z"/><path id="shape94" fill="#62bc85" fill-rule="nonzero" stroke="#62bc85" stroke-width="1" d="M.0,.0L11.0,4.2L11.0,8.0L.0,3.6L.0,.0z" transform="translate(24.343180,35.484170)"/><path id="shape95" fill="#e85464" fill-rule="nonzero" stroke="#e85464" stroke-width=".25" d="M.0,2.8C-0.2,1.3,.9,.1,2.4,.0C3.9,-0.1,5.3,1.0,5.5,2.4C5.7,3.8,4.6,5.1,3.1,5.2C1.6,5.2,.2,4.2,.0,2.8z" transform="matrix(0.999391,-0.034899,0.034899,0.999391,52.626589,46.465907)"/><path id="shape96" fill="#ff7878" fill-rule="nonzero" stroke="#ff7878" stroke-width=".48" d="M.0,2.2C-0.1,1.1,.7,.1,1.9,.0C3.1,-0.1,4.2,.8,4.4,1.9C4.5,3.1,3.6,4.0,2.4,4.1C1.2,4.2,.2,3.3,.0,2.2z" transform="matrix(0.999391,-0.034899,0.034899,0.999391,53.201576,46.968006)"/><path id="shape97" fill="#fff" fill-opacity=".12" fill-rule="nonzero" d="M.0,1.9C-0.1,1.1,.3,.4,.9,.0C.9,.0,3.6,3.4,3.6,3.4C3.3,3.6,2.9,3.8,2.5,3.8C1.3,3.9,.2,3.0,.0,1.9z" transform="matrix(0.999391,-0.034899,0.034899,0.999391,53.188828,47.286509)"/><path id="shape98" fill="#fff" fill-opacity=".29" fill-rule="nonzero" d="M.0,.0L10.5,4.0L10.5,7.4L.0,3.3L.0,.0z" transform="translate(24.598830,35.787590)"/></g><g id="group99" transform="translate(261.423500,60.419600)"><path id="shape100" fill="#d6d8df" fill-rule="nonzero" stroke="#d6d8df" stroke-width=".5" d="M.0,.0L61.7,24.1L61.7,34.5L.0,10.5L.0,.0z" transform="translate(0.000000,22.047500)"/><path id="shape101" fill="none" stroke="#000" stroke-dasharray="3.8 1.2" stroke-width="1" d="M.0,.0L54.1,21.3" transform="translate(0.246000,27.811100)"/><path id="shape102" fill="#fff" fill-rule="nonzero" stroke="#fff" stroke-width="1" d="M.0,.0L12.2,4.7L12.2,9.5L.0,4.6L.0,.0z" transform="translate(23.837290,34.726770)"/><path id="shape103" fill="#caccd3" fill-rule="nonzero" stroke="#caccd3" stroke-width=".5" d="M.0,.0L57.5,22.1L57.5,32.6L.0,10.5L.0,.0z" transform="matrix(-1.000000,0.000000,0.000000,1.000000,119.209000,24.003300)"/><path id="shape104" fill="#e2e4e9" fill-rule="nonzero" stroke="#e2e4e9" stroke-width=".5" d="M61.7,46.1L.0,22.0L57.5,.0L119.2,24.0L61.7,46.1z"/><path id="shape105" fill="#62bc85" fill-rule="nonzero" stroke="#62bc85" stroke-width="1" d="M.0,.0L11.0,4.2L11.0,8.0L.0,3.6L.0,.0z" transform="translate(24.343180,35.484170)"/><path id="shape106" fill="#e85464" fill-rule="nonzero" stroke="#e85464" stroke-width=".25" d="M.0,2.8C-0.2,1.3,.9,.1,2.4,.0C3.9,-0.1,5.3,1.0,5.5,2.4C5.7,3.8,4.6,5.1,3.1,5.2C1.6,5.2,.2,4.2,.0,2.8z" transform="matrix(0.999391,-0.034899,0.034899,0.999391,52.626589,46.465907)"/><path id="shape107" fill="#ff7878" fill-rule="nonzero" stroke="#ff7878" stroke-width=".48" d="M.0,2.2C-0.1,1.1,.7,.1,1.9,.0C3.1,-0.1,4.2,.8,4.4,1.9C4.5,3.1,3.6,4.0,2.4,4.1C1.2,4.2,.2,3.3,.0,2.2z" transform="matrix(0.999391,-0.034899,0.034899,0.999391,53.201576,46.968006)"/><path id="shape108" fill="#fff" fill-opacity=".12" fill-rule="nonzero" d="M.0,1.9C-0.1,1.1,.3,.4,.9,.0C.9,.0,3.6,3.4,3.6,3.4C3.3,3.6,2.9,3.8,2.5,3.8C1.3,3.9,.2,3.0,.0,1.9z" transform="matrix(0.999391,-0.034899,0.034899,0.999391,53.188828,47.286509)"/><path id="shape109" fill="#fff" fill-opacity=".29" fill-rule="nonzero" d="M.0,.0L10.5,4.0L10.5,7.4L.0,3.3L.0,.0z" transform="translate(24.598830,35.787590)"/></g><path id="shape110" fill="none" stroke="#4bacc6" stroke-width="2" d="M.0,-0.0L76.9,-0.0" transform="matrix(-0.917693,0.397291,-0.397291,-0.917693,161.575200,43.621790)"/><path id="shape111" fill="none" stroke="#4bacc6" stroke-width="2" d="M.0,-0.0L65.6,-0.0" transform="matrix(-0.941040,0.338295,-0.338295,-0.941040,279.199865,100.189503)"/><path id="shape112" fill="none" stroke="#4bacc6" stroke-width="2" d="M.0,-0.0L74.7,-0.0" transform="matrix(-0.961681,-0.274170,0.274170,-0.961681,166.065100,126.306242)"/><path id="shape113" fill="none" stroke="#4bacc6" stroke-width="2" d="M.0,-0.0L69.0,-0.0" transform="matrix(-0.954125,-0.299407,0.299407,-0.954125,284.428252,74.186117)"/></g><g id="group114" transform="translate(378.955000,544.298900)"><g id="group115"><g id="group116" transform="translate(132.313200,-0.000100)"><g id="group117" transform="translate(0.000000,14.714400)"><path id="shape118" fill="#d6d8df" fill-rule="nonzero" stroke="#d6d8df" stroke-width=".5" d="M.0,.0L54.7,21.4L54.7,30.7L.0,9.3L.0,.0z" transform="translate(0.000000,19.592600)"/><path id="shape119" fill="none" stroke="#000" stroke-dasharray="3.8 1.2" stroke-width="1" d="M.0,.0L47.9,18.9" transform="translate(0.217800,24.714470)"/><path id="shape120" fill="#fff" fill-rule="nonzero" stroke="#fff" stroke-width="1" d="M.0,.0L10.8,4.2L10.8,8.4L.0,4.1L.0,.0z" transform="translate(21.105950,30.860070)"/><path id="shape121" fill="#caccd3" fill-rule="nonzero" stroke="#caccd3" stroke-width=".5" d="M.0,.0L50.9,19.6L50.9,29.0L.0,9.3L.0,.0z" transform="matrix(-1.000000,0.000000,0.000000,1.000000,105.549600,21.330700)"/><path id="shape122" fill="#e2e4e9" fill-rule="nonzero" stroke="#e2e4e9" stroke-width=".5" d="M54.7,41.0L.0,19.6L50.9,.0L105.5,21.3L54.7,41.0z"/><path id="shape123" fill="#62bc85" fill-rule="nonzero" stroke="#62bc85" stroke-width="1" d="M.0,.0L9.7,3.8L9.7,7.1L.0,3.2L.0,.0z" transform="translate(21.553860,31.533130)"/><path id="shape124" fill="#e85464" fill-rule="nonzero" stroke="#e85464" stroke-width=".25" d="M.0,2.4C-0.1,1.2,.8,.1,2.2,.0C3.5,-0.1,4.7,.9,4.9,2.1C5.0,3.4,4.1,4.5,2.7,4.6C1.4,4.7,.2,3.7,.0,2.4z" transform="matrix(0.999391,-0.034899,0.034899,0.999391,46.596162,41.291887)"/><path id="shape125" fill="#ff7878" fill-rule="nonzero" stroke="#ff7878" stroke-width=".48" d="M.0,2.0C-0.1,.9,.7,.1,1.7,.0C2.8,-0.1,3.8,.7,3.9,1.7C4.0,2.7,3.2,3.6,2.2,3.7C1.1,3.7,.1,3.0,.0,2.0z" transform="matrix(0.999391,-0.034899,0.034899,0.999391,47.105329,41.738099)"/><path id="shape126" fill="#fff" fill-opacity=".12" fill-rule="nonzero" d="M.0,1.7C-0.0,1.0,.3,.4,.8,.0C.8,.0,3.2,3.0,3.2,3.0C2.9,3.2,2.6,3.3,2.2,3.4C1.1,3.4,.2,2.7,.0,1.7z" transform="matrix(0.999391,-0.034899,0.034899,0.999391,47.094033,42.021278)"/><path id="shape127" fill="#fff" fill-opacity=".29" fill-rule="nonzero" d="M.0,.0L9.3,3.6L9.3,6.6L.0,2.9L.0,.0z" transform="translate(21.780240,31.802750)"/></g><g id="group128"><path id="shape129" fill="#d6d8df" fill-rule="nonzero" stroke="#d6d8df" stroke-width=".5" d="M.0,.0L54.7,21.4L54.7,30.7L.0,9.3L.0,.0z" transform="translate(0.000000,19.592600)"/><path id="shape130" fill="none" stroke="#000" stroke-dasharray="3.8 1.2" stroke-width="1" d="M.0,.0L47.9,18.9" transform="translate(0.217800,24.714470)"/><path id="shape131" fill="#fff" fill-rule="nonzero" stroke="#fff" stroke-width="1" d="M.0,.0L10.8,4.2L10.8,8.4L.0,4.1L.0,.0z" transform="translate(21.105950,30.860070)"/><path id="shape132" fill="#caccd3" fill-rule="nonzero" stroke="#caccd3" stroke-width=".5" d="M.0,.0L50.9,19.6L50.9,29.0L.0,9.3L.0,.0z" transform="matrix(-1.000000,0.000000,0.000000,1.000000,105.549600,21.330700)"/><path id="shape133" fill="#e2e4e9" fill-rule="nonzero" stroke="#e2e4e9" stroke-width=".5" d="M54.7,41.0L.0,19.6L50.9,.0L105.5,21.3L54.7,41.0z"/><path id="shape134" fill="#62bc85" fill-rule="nonzero" stroke="#62bc85" stroke-width="1" d="M.0,.0L9.7,3.8L9.7,7.1L.0,3.2L.0,.0z" transform="translate(21.553860,31.533130)"/><path id="shape135" fill="#e85464" fill-rule="nonzero" stroke="#e85464" stroke-width=".25" d="M.0,2.4C-0.1,1.2,.8,.1,2.2,.0C3.5,-0.1,4.7,.9,4.9,2.1C5.0,3.4,4.1,4.5,2.7,4.6C1.4,4.7,.2,3.7,.0,2.4z" transform="matrix(0.999391,-0.034899,0.034899,0.999391,46.596162,41.291887)"/><path id="shape136" fill="#ff7878" fill-rule="nonzero" stroke="#ff7878" stroke-width=".48" d="M.0,2.0C-0.1,.9,.7,.1,1.7,.0C2.8,-0.1,3.8,.7,3.9,1.7C4.0,2.7,3.2,3.6,2.2,3.7C1.1,3.7,.1,3.0,.0,2.0z" transform="matrix(0.999391,-0.034899,0.034899,0.999391,47.105329,41.738099)"/><path id="shape137" fill="#fff" fill-opacity=".12" fill-rule="nonzero" d="M.0,1.7C-0.0,1.0,.3,.4,.8,.0C.8,.0,3.2,3.0,3.2,3.0C2.9,3.2,2.6,3.3,2.2,3.4C1.1,3.4,.2,2.7,.0,1.7z" transform="matrix(0.999391,-0.034899,0.034899,0.999391,47.094033,42.021278)"/><path id="shape138" fill="#fff" fill-opacity=".29" fill-rule="nonzero" d="M.0,.0L9.3,3.6L9.3,6.6L.0,2.9L.0,.0z" transform="translate(21.780240,31.802750)"/></g></g><g id="group139" transform="translate(125.483500,108.602100)"><path id="shape140" fill="#d6d8df" fill-rule="nonzero" stroke="#d6d8df" stroke-width=".5" d="M.0,.0L61.7,24.1L61.7,34.5L.0,10.5L.0,.0z" transform="translate(0.000000,22.047500)"/><path id="shape141" fill="none" stroke="#000" stroke-dasharray="3.8 1.2" stroke-width="1" d="M.0,.0L54.1,21.3" transform="translate(0.246000,27.811100)"/><path id="shape142" fill="#fff" fill-rule="nonzero" stroke="#fff" stroke-width="1" d="M.0,.0L12.2,4.7L12.2,9.5L.0,4.6L.0,.0z" transform="translate(23.837290,34.726770)"/><path id="shape143" fill="#caccd3" fill-rule="nonzero" stroke="#caccd3" stroke-width=".5" d="M.0,.0L57.5,22.1L57.5,32.6L.0,10.5L.0,.0z" transform="matrix(-1.000000,0.000000,0.000000,1.000000,119.209000,24.003300)"/><path id="shape144" fill="#e2e4e9" fill-rule="nonzero" stroke="#e2e4e9" stroke-width=".5" d="M61.7,46.1L.0,22.0L57.5,.0L119.2,24.0L61.7,46.1z"/><path id="shape145" fill="#62bc85" fill-rule="nonzero" stroke="#62bc85" stroke-width="1" d="M.0,.0L11.0,4.2L11.0,8.0L.0,3.6L.0,.0z" transform="translate(24.343180,35.484170)"/><path id="shape146" fill="#e85464" fill-rule="nonzero" stroke="#e85464" stroke-width=".25" d="M.0,2.8C-0.2,1.3,.9,.1,2.4,.0C3.9,-0.1,5.3,1.0,5.5,2.4C5.7,3.8,4.6,5.1,3.1,5.2C1.6,5.2,.2,4.2,.0,2.8z" transform="matrix(0.999391,-0.034899,0.034899,0.999391,52.626589,46.465907)"/><path id="shape147" fill="#ff7878" fill-rule="nonzero" stroke="#ff7878" stroke-width=".48" d="M.0,2.2C-0.1,1.1,.7,.1,1.9,.0C3.1,-0.1,4.2,.8,4.4,1.9C4.5,3.1,3.6,4.0,2.4,4.1C1.2,4.2,.2,3.3,.0,2.2z" transform="matrix(0.999391,-0.034899,0.034899,0.999391,53.201576,46.968006)"/><path id="shape148" fill="#fff" fill-opacity=".12" fill-rule="nonzero" d="M.0,1.9C-0.1,1.1,.3,.4,.9,.0C.9,.0,3.6,3.4,3.6,3.4C3.3,3.6,2.9,3.8,2.5,3.8C1.3,3.9,.2,3.0,.0,1.9z" transform="matrix(0.999391,-0.034899,0.034899,0.999391,53.188828,47.286509)"/><path id="shape149" fill="#fff" fill-opacity=".29" fill-rule="nonzero" d="M.0,.0L10.5,4.0L10.5,7.4L.0,3.3L.0,.0z" transform="translate(24.598830,35.787590)"/></g><g id="group150" transform="translate(-0.000200,60.419600)"><path id="shape151" fill="#d6d8df" fill-rule="nonzero" stroke="#d6d8df" stroke-width=".5" d="M.0,.0L61.7,24.1L61.7,34.5L.0,10.5L.0,.0z" transform="translate(0.000000,22.047500)"/><path id="shape152" fill="none" stroke="#000" stroke-dasharray="3.8 1.2" stroke-width="1" d="M.0,.0L54.1,21.3" transform="translate(0.246000,27.811100)"/><path id="shape153" fill="#fff" fill-rule="nonzero" stroke="#fff" stroke-width="1" d="M.0,.0L12.2,4.7L12.2,9.5L.0,4.6L.0,.0z" transform="translate(23.837290,34.726770)"/><path id="shape154" fill="#caccd3" fill-rule="nonzero" stroke="#caccd3" stroke-width=".5" d="M.0,.0L57.5,22.1L57.5,32.6L.0,10.5L.0,.0z" transform="matrix(-1.000000,0.000000,0.000000,1.000000,119.209000,24.003300)"/><path id="shape155" fill="#e2e4e9" fill-rule="nonzero" stroke="#e2e4e9" stroke-width=".5" d="M61.7,46.1L.0,22.0L57.5,.0L119.2,24.0L61.7,46.1z"/><path id="shape156" fill="#62bc85" fill-rule="nonzero" stroke="#62bc85" stroke-width="1" d="M.0,.0L11.0,4.2L11.0,8.0L.0,3.6L.0,.0z" transform="translate(24.343180,35.484170)"/><path id="shape157" fill="#e85464" fill-rule="nonzero" stroke="#e85464" stroke-width=".25" d="M.0,2.8C-0.2,1.3,.9,.1,2.4,.0C3.9,-0.1,5.3,1.0,5.5,2.4C5.7,3.8,4.6,5.1,3.1,5.2C1.6,5.2,.2,4.2,.0,2.8z" transform="matrix(0.999391,-0.034899,0.034899,0.999391,52.626589,46.465907)"/><path id="shape158" fill="#ff7878" fill-rule="nonzero" stroke="#ff7878" stroke-width=".48" d="M.0,2.2C-0.1,1.1,.7,.1,1.9,.0C3.1,-0.1,4.2,.8,4.4,1.9C4.5,3.1,3.6,4.0,2.4,4.1C1.2,4.2,.2,3.3,.0,2.2z" transform="matrix(0.999391,-0.034899,0.034899,0.999391,53.201576,46.968006)"/><path id="shape159" fill="#fff" fill-opacity=".12" fill-rule="nonzero" d="M.0,1.9C-0.1,1.1,.3,.4,.9,.0C.9,.0,3.6,3.4,3.6,3.4C3.3,3.6,2.9,3.8,2.5,3.8C1.3,3.9,.2,3.0,.0,1.9z" transform="matrix(0.999391,-0.034899,0.034899,0.999391,53.188828,47.286509)"/><path id="shape160" fill="#fff" fill-opacity=".29" fill-rule="nonzero" d="M.0,.0L10.5,4.0L10.5,7.4L.0,3.3L.0,.0z" transform="translate(24.598830,35.787590)"/></g><g id="group161" transform="translate(261.423500,60.419600)"><path id="shape162" fill="#d6d8df" fill-rule="nonzero" stroke="#d6d8df" stroke-width=".5" d="M.0,.0L61.7,24.1L61.7,34.5L.0,10.5L.0,.0z" transform="translate(0.000000,22.047500)"/><path id="shape163" fill="none" stroke="#000" stroke-dasharray="3.8 1.2" stroke-width="1" d="M.0,.0L54.1,21.3" transform="translate(0.246000,27.811100)"/><path id="shape164" fill="#fff" fill-rule="nonzero" stroke="#fff" stroke-width="1" d="M.0,.0L12.2,4.7L12.2,9.5L.0,4.6L.0,.0z" transform="translate(23.837290,34.726770)"/><path id="shape165" fill="#caccd3" fill-rule="nonzero" stroke="#caccd3" stroke-width=".5" d="M.0,.0L57.5,22.1L57.5,32.6L.0,10.5L.0,.0z" transform="matrix(-1.000000,0.000000,0.000000,1.000000,119.209000,24.003300)"/><path id="shape166" fill="#e2e4e9" fill-rule="nonzero" stroke="#e2e4e9" stroke-width=".5" d="M61.7,46.1L.0,22.0L57.5,.0L119.2,24.0L61.7,46.1z"/><path id="shape167" fill="#62bc85" fill-rule="nonzero" stroke="#62bc85" stroke-width="1" d="M.0,.0L11.0,4.2L11.0,8.0L.0,3.6L.0,.0z" transform="translate(24.343180,35.484170)"/><path id="shape168" fill="#e85464" fill-rule="nonzero" stroke="#e85464" stroke-width=".25" d="M.0,2.8C-0.2,1.3,.9,.1,2.4,.0C3.9,-0.1,5.3,1.0,5.5,2.4C5.7,3.8,4.6,5.1,3.1,5.2C1.6,5.2,.2,4.2,.0,2.8z" transform="matrix(0.999391,-0.034899,0.034899,0.999391,52.626589,46.465907)"/><path id="shape169" fill="#ff7878" fill-rule="nonzero" stroke="#ff7878" stroke-width=".48" d="M.0,2.2C-0.1,1.1,.7,.1,1.9,.0C3.1,-0.1,4.2,.8,4.4,1.9C4.5,3.1,3.6,4.0,2.4,4.1C1.2,4.2,.2,3.3,.0,2.2z" transform="matrix(0.999391,-0.034899,0.034899,0.999391,53.201576,46.968006)"/><path id="shape170" fill="#fff" fill-opacity=".12" fill-rule="nonzero" d="M.0,1.9C-0.1,1.1,.3,.4,.9,.0C.9,.0,3.6,3.4,3.6,3.4C3.3,3.6,2.9,3.8,2.5,3.8C1.3,3.9,.2,3.0,.0,1.9z" transform="matrix(0.999391,-0.034899,0.034899,0.999391,53.188828,47.286509)"/><path id="shape171" fill="#fff" fill-opacity=".29" fill-rule="nonzero" d="M.0,.0L10.5,4.0L10.5,7.4L.0,3.3L.0,.0z" transform="translate(24.598830,35.787590)"/></g></g><path id="shape172" fill="none" stroke="#4bacc6" stroke-width="2" d="M.0,-0.0L65.6,-0.0" transform="matrix(-0.941040,0.338295,-0.338295,-0.941040,152.670959,52.006969)"/><path id="shape173" fill="none" stroke="#4bacc6" stroke-width="2" d="M.0,-0.0L65.6,-0.0" transform="matrix(-0.941040,0.338295,-0.338295,-0.941040,279.199865,100.189503)"/><path id="shape174" fill="none" stroke="#4bacc6" stroke-width="2" d="M.0,-0.0L50.3,-0.0" transform="matrix(-0.914084,-0.405525,0.405525,-0.914084,140.122193,126.193614)"/><path id="shape175" fill="none" stroke="#4bacc6" stroke-width="2" d="M.0,-0.0L69.0,-0.0" transform="matrix(-0.954125,-0.299407,0.299407,-0.954125,284.428252,74.186117)"/></g><g id="group176" transform="translate(722.161138,368.693198)"><g id="group177"><g id="group178" transform="translate(132.313200,-0.000100)"><g id="group179" transform="translate(0.000000,14.714400)"><path id="shape180" fill="#d6d8df" fill-rule="nonzero" stroke="#d6d8df" stroke-width=".5" d="M.0,.0L54.7,21.4L54.7,30.7L.0,9.3L.0,.0z" transform="translate(0.000000,19.592600)"/><path id="shape181" fill="none" stroke="#000" stroke-dasharray="3.8 1.2" stroke-width="1" d="M.0,.0L47.9,18.9" transform="translate(0.217800,24.714470)"/><path id="shape182" fill="#fff" fill-rule="nonzero" stroke="#fff" stroke-width="1" d="M.0,.0L10.8,4.2L10.8,8.4L.0,4.1L.0,.0z" transform="translate(21.105950,30.860070)"/><path id="shape183" fill="#caccd3" fill-rule="nonzero" stroke="#caccd3" stroke-width=".5" d="M.0,.0L50.9,19.6L50.9,29.0L.0,9.3L.0,.0z" transform="matrix(-1.000000,0.000000,0.000000,1.000000,105.549600,21.330700)"/><path id="shape184" fill="#e2e4e9" fill-rule="nonzero" stroke="#e2e4e9" stroke-width=".5" d="M54.7,41.0L.0,19.6L50.9,.0L105.5,21.3L54.7,41.0z"/><path id="shape185" fill="#62bc85" fill-rule="nonzero" stroke="#62bc85" stroke-width="1" d="M.0,.0L9.7,3.8L9.7,7.1L.0,3.2L.0,.0z" transform="translate(21.553860,31.533130)"/><path id="shape186" fill="#e85464" fill-rule="nonzero" stroke="#e85464" stroke-width=".25" d="M.0,2.4C-0.1,1.2,.8,.1,2.2,.0C3.5,-0.1,4.7,.9,4.9,2.1C5.0,3.4,4.1,4.5,2.7,4.6C1.4,4.7,.2,3.7,.0,2.4z" transform="matrix(0.999391,-0.034899,0.034899,0.999391,46.596162,41.291887)"/><path id="shape187" fill="#ff7878" fill-rule="nonzero" stroke="#ff7878" stroke-width=".48" d="M.0,2.0C-0.1,.9,.7,.1,1.7,.0C2.8,-0.1,3.8,.7,3.9,1.7C4.0,2.7,3.2,3.6,2.2,3.7C1.1,3.7,.1,3.0,.0,2.0z" transform="matrix(0.999391,-0.034899,0.034899,0.999391,47.105329,41.738099)"/><path id="shape188" fill="#fff" fill-opacity=".12" fill-rule="nonzero" d="M.0,1.7C-0.0,1.0,.3,.4,.8,.0C.8,.0,3.2,3.0,3.2,3.0C2.9,3.2,2.6,3.3,2.2,3.4C1.1,3.4,.2,2.7,.0,1.7z" transform="matrix(0.999391,-0.034899,0.034899,0.999391,47.094033,42.021278)"/><path id="shape189" fill="#fff" fill-opacity=".29" fill-rule="nonzero" d="M.0,.0L9.3,3.6L9.3,6.6L.0,2.9L.0,.0z" transform="translate(21.780240,31.802750)"/></g><g id="group190"><path id="shape191" fill="#d6d8df" fill-rule="nonzero" stroke="#d6d8df" stroke-width=".5" d="M.0,.0L54.7,21.4L54.7,30.7L.0,9.3L.0,.0z" transform="translate(0.000000,19.592600)"/><path id="shape192" fill="none" stroke="#000" stroke-dasharray="3.8 1.2" stroke-width="1" d="M.0,.0L47.9,18.9" transform="translate(0.217800,24.714470)"/><path id="shape193" fill="#fff" fill-rule="nonzero" stroke="#fff" stroke-width="1" d="M.0,.0L10.8,4.2L10.8,8.4L.0,4.1L.0,.0z" transform="translate(21.105950,30.860070)"/><path id="shape194" fill="#caccd3" fill-rule="nonzero" stroke="#caccd3" stroke-width=".5" d="M.0,.0L50.9,19.6L50.9,29.0L.0,9.3L.0,.0z" transform="matrix(-1.000000,0.000000,0.000000,1.000000,105.549600,21.330700)"/><path id="shape195" fill="#e2e4e9" fill-rule="nonzero" stroke="#e2e4e9" stroke-width=".5" d="M54.7,41.0L.0,19.6L50.9,.0L105.5,21.3L54.7,41.0z"/><path id="shape196" fill="#62bc85" fill-rule="nonzero" stroke="#62bc85" stroke-width="1" d="M.0,.0L9.7,3.8L9.7,7.1L.0,3.2L.0,.0z" transform="translate(21.553860,31.533130)"/><path id="shape197" fill="#e85464" fill-rule="nonzero" stroke="#e85464" stroke-width=".25" d="M.0,2.4C-0.1,1.2,.8,.1,2.2,.0C3.5,-0.1,4.7,.9,4.9,2.1C5.0,3.4,4.1,4.5,2.7,4.6C1.4,4.7,.2,3.7,.0,2.4z" transform="matrix(0.999391,-0.034899,0.034899,0.999391,46.596162,41.291887)"/><path id="shape198" fill="#ff7878" fill-rule="nonzero" stroke="#ff7878" stroke-width=".48" d="M.0,2.0C-0.1,.9,.7,.1,1.7,.0C2.8,-0.1,3.8,.7,3.9,1.7C4.0,2.7,3.2,3.6,2.2,3.7C1.1,3.7,.1,3.0,.0,2.0z" transform="matrix(0.999391,-0.034899,0.034899,0.999391,47.105329,41.738099)"/><path id="shape199" fill="#fff" fill-opacity=".12" fill-rule="nonzero" d="M.0,1.7C-0.0,1.0,.3,.4,.8,.0C.8,.0,3.2,3.0,3.2,3.0C2.9,3.2,2.6,3.3,2.2,3.4C1.1,3.4,.2,2.7,.0,1.7z" transform="matrix(0.999391,-0.034899,0.034899,0.999391,47.094033,42.021278)"/><path id="shape200" fill="#fff" fill-opacity=".29" fill-rule="nonzero" d="M.0,.0L9.3,3.6L9.3,6.6L.0,2.9L.0,.0z" transform="translate(21.780240,31.802750)"/></g></g><g id="group201" transform="translate(125.483500,108.602100)"><path id="shape202" fill="#d6d8df" fill-rule="nonzero" stroke="#d6d8df" stroke-width=".5" d="M.0,.0L61.7,24.1L61.7,34.5L.0,10.5L.0,.0z" transform="translate(0.000000,22.047500)"/><path id="shape203" fill="none" stroke="#000" stroke-dasharray="3.8 1.2" stroke-width="1" d="M.0,.0L54.1,21.3" transform="translate(0.246000,27.811100)"/><path id="shape204" fill="#fff" fill-rule="nonzero" stroke="#fff" stroke-width="1" d="M.0,.0L12.2,4.7L12.2,9.5L.0,4.6L.0,.0z" transform="translate(23.837290,34.726770)"/><path id="shape205" fill="#caccd3" fill-rule="nonzero" stroke="#caccd3" stroke-width=".5" d="M.0,.0L57.5,22.1L57.5,32.6L.0,10.5L.0,.0z" transform="matrix(-1.000000,0.000000,0.000000,1.000000,119.209000,24.003300)"/><path id="shape206" fill="#e2e4e9" fill-rule="nonzero" stroke="#e2e4e9" stroke-width=".5" d="M61.7,46.1L.0,22.0L57.5,.0L119.2,24.0L61.7,46.1z"/><path id="shape207" fill="#62bc85" fill-rule="nonzero" stroke="#62bc85" stroke-width="1" d="M.0,.0L11.0,4.2L11.0,8.0L.0,3.6L.0,.0z" transform="translate(24.343180,35.484170)"/><path id="shape208" fill="#e85464" fill-rule="nonzero" stroke="#e85464" stroke-width=".25" d="M.0,2.8C-0.2,1.3,.9,.1,2.4,.0C3.9,-0.1,5.3,1.0,5.5,2.4C5.7,3.8,4.6,5.1,3.1,5.2C1.6,5.2,.2,4.2,.0,2.8z" transform="matrix(0.999391,-0.034899,0.034899,0.999391,52.626589,46.465907)"/><path id="shape209" fill="#ff7878" fill-rule="nonzero" stroke="#ff7878" stroke-width=".48" d="M.0,2.2C-0.1,1.1,.7,.1,1.9,.0C3.1,-0.1,4.2,.8,4.4,1.9C4.5,3.1,3.6,4.0,2.4,4.1C1.2,4.2,.2,3.3,.0,2.2z" transform="matrix(0.999391,-0.034899,0.034899,0.999391,53.201576,46.968006)"/><path id="shape210" fill="#fff" fill-opacity=".12" fill-rule="nonzero" d="M.0,1.9C-0.1,1.1,.3,.4,.9,.0C.9,.0,3.6,3.4,3.6,3.4C3.3,3.6,2.9,3.8,2.5,3.8C1.3,3.9,.2,3.0,.0,1.9z" transform="matrix(0.999391,-0.034899,0.034899,0.999391,53.188828,47.286509)"/><path id="shape211" fill="#fff" fill-opacity=".29" fill-rule="nonzero" d="M.0,.0L10.5,4.0L10.5,7.4L.0,3.3L.0,.0z" transform="translate(24.598830,35.787590)"/></g><g id="group212" transform="translate(-0.000200,60.419600)"><path id="shape213" fill="#d6d8df" fill-rule="nonzero" stroke="#d6d8df" stroke-width=".5" d="M.0,.0L61.7,24.1L61.7,34.5L.0,10.5L.0,.0z" transform="translate(0.000000,22.047500)"/><path id="shape214" fill="none" stroke="#000" stroke-dasharray="3.8 1.2" stroke-width="1" d="M.0,.0L54.1,21.3" transform="translate(0.246000,27.811100)"/><path id="shape215" fill="#fff" fill-rule="nonzero" stroke="#fff" stroke-width="1" d="M.0,.0L12.2,4.7L12.2,9.5L.0,4.6L.0,.0z" transform="translate(23.837290,34.726770)"/><path id="shape216" fill="#caccd3" fill-rule="nonzero" stroke="#caccd3" stroke-width=".5" d="M.0,.0L57.5,22.1L57.5,32.6L.0,10.5L.0,.0z" transform="matrix(-1.000000,0.000000,0.000000,1.000000,119.209000,24.003300)"/><path id="shape217" fill="#e2e4e9" fill-rule="nonzero" stroke="#e2e4e9" stroke-width=".5" d="M61.7,46.1L.0,22.0L57.5,.0L119.2,24.0L61.7,46.1z"/><path id="shape218" fill="#62bc85" fill-rule="nonzero" stroke="#62bc85" stroke-width="1" d="M.0,.0L11.0,4.2L11.0,8.0L.0,3.6L.0,.0z" transform="translate(24.343180,35.484170)"/><path id="shape219" fill="#e85464" fill-rule="nonzero" stroke="#e85464" stroke-width=".25" d="M.0,2.8C-0.2,1.3,.9,.1,2.4,.0C3.9,-0.1,5.3,1.0,5.5,2.4C5.7,3.8,4.6,5.1,3.1,5.2C1.6,5.2,.2,4.2,.0,2.8z" transform="matrix(0.999391,-0.034899,0.034899,0.999391,52.626589,46.465907)"/><path id="shape220" fill="#ff7878" fill-rule="nonzero" stroke="#ff7878" stroke-width=".48" d="M.0,2.2C-0.1,1.1,.7,.1,1.9,.0C3.1,-0.1,4.2,.8,4.4,1.9C4.5,3.1,3.6,4.0,2.4,4.1C1.2,4.2,.2,3.3,.0,2.2z" transform="matrix(0.999391,-0.034899,0.034899,0.999391,53.201576,46.968006)"/><path id="shape221" fill="#fff" fill-opacity=".12" fill-rule="nonzero" d="M.0,1.9C-0.1,1.1,.3,.4,.9,.0C.9,.0,3.6,3.4,3.6,3.4C3.3,3.6,2.9,3.8,2.5,3.8C1.3,3.9,.2,3.0,.0,1.9z" transform="matrix(0.999391,-0.034899,0.034899,0.999391,53.188828,47.286509)"/><path id="shape222" fill="#fff" fill-opacity=".29" fill-rule="nonzero" d="M.0,.0L10.5,4.0L10.5,7.4L.0,3.3L.0,.0z" transform="translate(24.598830,35.787590)"/></g><g id="group223" transform="translate(261.423500,60.419600)"><path id="shape224" fill="#d6d8df" fill-rule="nonzero" stroke="#d6d8df" stroke-width=".5" d="M.0,.0L61.7,24.1L61.7,34.5L.0,10.5L.0,.0z" transform="translate(0.000000,22.047500)"/><path id="shape225" fill="none" stroke="#000" stroke-dasharray="3.8 1.2" stroke-width="1" d="M.0,.0L54.1,21.3" transform="translate(0.246000,27.811100)"/><path id="shape226" fill="#fff" fill-rule="nonzero" stroke="#fff" stroke-width="1" d="M.0,.0L12.2,4.7L12.2,9.5L.0,4.6L.0,.0z" transform="translate(23.837290,34.726770)"/><path id="shape227" fill="#caccd3" fill-rule="nonzero" stroke="#caccd3" stroke-width=".5" d="M.0,.0L57.5,22.1L57.5,32.6L.0,10.5L.0,.0z" transform="matrix(-1.000000,0.000000,0.000000,1.000000,119.209000,24.003300)"/><path id="shape228" fill="#e2e4e9" fill-rule="nonzero" stroke="#e2e4e9" stroke-width=".5" d="M61.7,46.1L.0,22.0L57.5,.0L119.2,24.0L61.7,46.1z"/><path id="shape229" fill="#62bc85" fill-rule="nonzero" stroke="#62bc85" stroke-width="1" d="M.0,.0L11.0,4.2L11.0,8.0L.0,3.6L.0,.0z" transform="translate(24.343180,35.484170)"/><path id="shape230" fill="#e85464" fill-rule="nonzero" stroke="#e85464" stroke-width=".25" d="M.0,2.8C-0.2,1.3,.9,.1,2.4,.0C3.9,-0.1,5.3,1.0,5.5,2.4C5.7,3.8,4.6,5.1,3.1,5.2C1.6,5.2,.2,4.2,.0,2.8z" transform="matrix(0.999391,-0.034899,0.034899,0.999391,52.626589,46.465907)"/><path id="shape231" fill="#ff7878" fill-rule="nonzero" stroke="#ff7878" stroke-width=".48" d="M.0,2.2C-0.1,1.1,.7,.1,1.9,.0C3.1,-0.1,4.2,.8,4.4,1.9C4.5,3.1,3.6,4.0,2.4,4.1C1.2,4.2,.2,3.3,.0,2.2z" transform="matrix(0.999391,-0.034899,0.034899,0.999391,53.201576,46.968006)"/><path id="shape232" fill="#fff" fill-opacity=".12" fill-rule="nonzero" d="M.0,1.9C-0.1,1.1,.3,.4,.9,.0C.9,.0,3.6,3.4,3.6,3.4C3.3,3.6,2.9,3.8,2.5,3.8C1.3,3.9,.2,3.0,.0,1.9z" transform="matrix(0.999391,-0.034899,0.034899,0.999391,53.188828,47.286509)"/><path id="shape233" fill="#fff" fill-opacity=".29" fill-rule="nonzero" d="M.0,.0L10.5,4.0L10.5,7.4L.0,3.3L.0,.0z" transform="translate(24.598830,35.787590)"/></g></g><path id="shape234" fill="none" stroke="#4bacc6" stroke-width="2" d="M.0,-0.0L65.6,-0.0" transform="matrix(-0.941040,0.338295,-0.338295,-0.941040,152.670959,52.006969)"/><path id="shape235" fill="none" stroke="#4bacc6" stroke-width="2" d="M.0,-0.0L65.6,-0.0" transform="matrix(-0.941040,0.338295,-0.338295,-0.941040,279.199865,100.189503)"/><path id="shape236" fill="none" stroke="#4bacc6" stroke-width="2" d="M.0,-0.0L50.3,-0.0" transform="matrix(-0.914084,-0.405525,0.405525,-0.914084,140.122193,126.193614)"/><path id="shape237" fill="none" stroke="#4bacc6" stroke-width="2" d="M.0,-0.0L69.0,-0.0" transform="matrix(-0.954125,-0.299407,0.299407,-0.954125,284.428252,74.186117)"/></g><path id="shape238" fill="none" stroke="#6a7fe1" stroke-width="2" d="M.0,.0L201.7,-85.1" transform="translate(277.546734,372.330650)"/><path id="shape239" fill="none" stroke="#6a7fe1" stroke-width="2" d="M.0,.0L2.8,-181.4" transform="translate(564.276486,559.845097)"/><path id="shape240" fill="none" stroke="#6a7fe1" stroke-width="2" d="M.0,.0L-205.6,-101.9" transform="translate(854.474338,389.182697)"/><path id="shape241" fill="none" stroke="#6a7fe1" stroke-width="2" d="M.0,.0L-129.5,-89.0" transform="translate(738.594469,444.854713)"/><path id="shape242" fill="none" stroke="#6a7fe1" stroke-width="2" d="M.0,.0L135.1,-82.0" transform="translate(374.371572,428.959214)"/><g id="shape243"><text xml:space="preserve" style="fill:red;font-family:微软雅黑;font-size:21pt;font-weight:700" transform="translate(444.798000,109.320000)"><tspan x="54.7" y="39.5">Too busy</tspan></text></g><g id="group244" transform="matrix(0.945519,0.325568,-0.325568,0.945519,286.859503,182.209644)"><g id="group245" transform="matrix(0.766044,-0.642788,0.642788,0.766044,25.737928,131.410351)"><path id="shape246" fill="#ffa3a0" fill-rule="nonzero" stroke="red" stroke-width="2" d="M.0,.0L16.1,17.2L.0,34.4L16.1,34.4L32.2,17.2L16.1,.0L.0,.0z"/><path id="shape247" fill="#ffa3a0" fill-rule="nonzero" stroke="red" stroke-width="2" d="M.0,.0L16.1,17.2L.0,34.4L16.1,34.4L32.2,17.2L16.1,.0L.0,.0z" transform="translate(25.062600,0.000000)"/><path id="shape248" fill="#ffa3a0" fill-rule="nonzero" stroke="red" stroke-width="2" d="M.0,.0L16.1,17.2L.0,34.4L16.1,34.4L32.2,17.2L16.1,.0L.0,.0z" transform="translate(51.915300,0.000000)"/><path id="shape249" fill="#ffa3a0" fill-rule="nonzero" stroke="red" stroke-width="2" d="M.0,.0L16.1,17.2L.0,34.4L16.1,34.4L32.2,17.2L16.1,.0L.0,.0z" transform="translate(76.977900,0.000000)"/><path id="shape250" fill="#ffa3a0" fill-rule="nonzero" stroke="red" stroke-width="2" d="M.0,.0L16.1,17.2L.0,34.4L16.1,34.4L32.2,17.2L16.1,.0L.0,.0z" transform="translate(103.830300,0.000000)"/><path id="shape251" fill="#ffa3a0" fill-rule="nonzero" stroke="red" stroke-width="2" d="M.0,.0L16.1,17.2L.0,34.4L16.1,34.4L32.2,17.2L16.1,.0L.0,.0z" transform="translate(128.893300,0.000000)"/></g><g id="shape252"><text xml:space="preserve" style="fill:red;font-family:微软雅黑;font-size:16pt;font-weight:700" transform="matrix(0.766044,-0.642788,0.642788,0.766044,-0.000080,78.457435)"><tspan x="21.5" y="43.8">100Gps</tspan></text></g></g><g id="group253" transform="matrix(0.994522,0.104528,-0.104528,0.994522,404.335540,331.052115)"><g id="group254" transform="matrix(0.766044,-0.642788,0.642788,0.766044,25.737935,131.410356)"><path id="shape255" fill="#ffa3a0" fill-rule="nonzero" stroke="red" stroke-width="2" d="M.0,.0L16.1,17.2L.0,34.4L16.1,34.4L32.2,17.2L16.1,.0L.0,.0z"/><path id="shape256" fill="#ffa3a0" fill-rule="nonzero" stroke="red" stroke-width="2" d="M.0,.0L16.1,17.2L.0,34.4L16.1,34.4L32.2,17.2L16.1,.0L.0,.0z" transform="translate(25.062600,0.000000)"/><path id="shape257" fill="#ffa3a0" fill-rule="nonzero" stroke="red" stroke-width="2" d="M.0,.0L16.1,17.2L.0,34.4L16.1,34.4L32.2,17.2L16.1,.0L.0,.0z" transform="translate(51.915300,0.000000)"/><path id="shape258" fill="#ffa3a0" fill-rule="nonzero" stroke="red" stroke-width="2" d="M.0,.0L16.1,17.2L.0,34.4L16.1,34.4L32.2,17.2L16.1,.0L.0,.0z" transform="translate(76.977900,0.000000)"/><path id="shape259" fill="#ffa3a0" fill-rule="nonzero" stroke="red" stroke-width="2" d="M.0,.0L16.1,17.2L.0,34.4L16.1,34.4L32.2,17.2L16.1,.0L.0,.0z" transform="translate(103.830300,0.000000)"/><path id="shape260" fill="#ffa3a0" fill-rule="nonzero" stroke="red" stroke-width="2" d="M.0,.0L16.1,17.2L.0,34.4L16.1,34.4L32.2,17.2L16.1,.0L.0,.0z" transform="translate(128.893300,0.000000)"/></g><g id="shape261"><text xml:space="preserve" style="fill:red;font-family:微软雅黑;font-size:16pt;font-weight:700" transform="matrix(0.766044,-0.642788,0.642788,0.766044,-0.000100,78.457400)"><tspan x="21.5" y="43.8">100Gps</tspan></text></g></g><g id="group262" transform="matrix(0.980955,-0.194234,0.194234,0.980955,681.122212,234.133048)"><g id="group263" transform="matrix(-0.766044,-0.642788,0.642788,-0.766044,120.139431,157.406331)"><path id="shape264" fill="#ffa3a0" fill-rule="nonzero" stroke="red" stroke-width="2" d="M.0,.0L16.2,16.2L.0,32.5L17.9,32.5L34.1,16.2L17.9,.0L.0,.0z"/><path id="shape265" fill="#ffa3a0" fill-rule="nonzero" stroke="red" stroke-width="2" d="M.0,.0L16.2,16.2L.0,32.5L17.9,32.5L34.1,16.2L17.9,.0L.0,.0z" transform="translate(26.514500,0.000000)"/><path id="shape266" fill="#ffa3a0" fill-rule="nonzero" stroke="red" stroke-width="2" d="M.0,.0L16.2,16.2L.0,32.5L17.9,32.5L34.1,16.2L17.9,.0L.0,.0z" transform="translate(54.922800,0.000000)"/><path id="shape267" fill="#ffa3a0" fill-rule="nonzero" stroke="red" stroke-width="2" d="M.0,.0L16.2,16.2L.0,32.5L17.9,32.5L34.1,16.2L17.9,.0L.0,.0z" transform="translate(81.437300,0.000000)"/><path id="shape268" fill="#ffa3a0" fill-rule="nonzero" stroke="red" stroke-width="2" d="M.0,.0L16.2,16.2L.0,32.5L17.9,32.5L34.1,16.2L17.9,.0L.0,.0z" transform="translate(109.846000,0.000000)"/><path id="shape269" fill="#ffa3a0" fill-rule="nonzero" stroke="red" stroke-width="2" d="M.0,.0L16.2,16.2L.0,32.5L17.9,32.5L34.1,16.2L17.9,.0L.0,.0z" transform="translate(136.360000,0.000000)"/></g><g id="shape270"><text xml:space="preserve" style="fill:red;font-family:微软雅黑;font-size:16pt;font-weight:700" transform="matrix(0.766044,0.642788,-0.642788,0.766044,48.083621,0.000048)"><tspan x="33.5" y="29.8">100Gps</tspan></text></g></g><g id="group271" transform="matrix(0.999701,-0.024432,0.024432,0.999701,574.817878,352.174707)"><g id="group272" transform="matrix(-0.766044,-0.642788,0.642788,-0.766044,120.139421,157.406376)"><path id="shape273" fill="#ffa3a0" fill-rule="nonzero" stroke="red" stroke-width="2" d="M.0,.0L16.2,16.2L.0,32.5L17.9,32.5L34.1,16.2L17.9,.0L.0,.0z"/><path id="shape274" fill="#ffa3a0" fill-rule="nonzero" stroke="red" stroke-width="2" d="M.0,.0L16.2,16.2L.0,32.5L17.9,32.5L34.1,16.2L17.9,.0L.0,.0z" transform="translate(26.514500,0.000000)"/><path id="shape275" fill="#ffa3a0" fill-rule="nonzero" stroke="red" stroke-width="2" d="M.0,.0L16.2,16.2L.0,32.5L17.9,32.5L34.1,16.2L17.9,.0L.0,.0z" transform="translate(54.922800,0.000000)"/><path id="shape276" fill="#ffa3a0" fill-rule="nonzero" stroke="red" stroke-width="2" d="M.0,.0L16.2,16.2L.0,32.5L17.9,32.5L34.1,16.2L17.9,.0L.0,.0z" transform="translate(81.437300,0.000000)"/><path id="shape277" fill="#ffa3a0" fill-rule="nonzero" stroke="red" stroke-width="2" d="M.0,.0L16.2,16.2L.0,32.5L17.9,32.5L34.1,16.2L17.9,.0L.0,.0z" transform="translate(109.846000,0.000000)"/><path id="shape278" fill="#ffa3a0" fill-rule="nonzero" stroke="red" stroke-width="2" d="M.0,.0L16.2,16.2L.0,32.5L17.9,32.5L34.1,16.2L17.9,.0L.0,.0z" transform="translate(136.360000,0.000000)"/></g><g id="shape279"><text xml:space="preserve" style="fill:red;font-family:微软雅黑;font-size:16pt;font-weight:700" transform="matrix(0.766044,0.642788,-0.642788,0.766044,48.083543,0.000079)"><tspan x="33.5" y="29.8">100Gps</tspan></text></g></g></g></svg>