<svg xmlns="http://www.w3.org/2000/svg" xmlns:ev="http://www.w3.org/2001/xml-events" xmlns:xlink="http://www.w3.org/1999/xlink" width="2255" height="804" viewBox="0 0 2255 804"><g id="page1" transform="translate(5.5,5.5)"><rect width="2245" height="794" x="0" y="0" fill="#fff"/><g id="group1" transform="translate(373.250000,29.745000)"><g id="group2" transform="translate(0.000000,62.560200)"><path id="shape3" fill="#d6d8df" fill-rule="nonzero" stroke="#d6d8df" stroke-width=".5" d="M.0,.0L83.7,44.8L83.7,66.4L.0,21.6L.0,.0z" transform="translate(0.000000,41.030800)"/><path id="shape4" fill="#caccd3" fill-rule="nonzero" stroke="#caccd3" stroke-width=".5" d="M.0,.0L77.8,41.1L77.8,62.8L.0,21.6L.0,.0z" transform="matrix(-1.000000,0.000000,0.000000,1.000000,161.500300,44.670600)"/><path id="shape5" fill="#e2e4e9" fill-rule="nonzero" stroke="#e2e4e9" stroke-width=".5" d="M83.7,85.8L.0,41.0L77.8,.0L161.5,44.7L83.7,85.8z"/><path id="shape6" fill="#01acac" fill-rule="nonzero" stroke="#01acac" stroke-width=".25" d="M.0,5.1C-0.2,2.5,1.3,.2,3.3,.0C5.3,-0.2,7.2,1.8,7.4,4.5C7.6,7.1,6.2,9.4,4.1,9.6C2.1,9.7,.3,7.7,.0,5.1z" transform="matrix(0.999391,-0.034899,0.034899,0.999391,71.260402,88.550650)"/><path id="shape7" fill="#76d7d7" fill-rule="nonzero" stroke="#76d7d7" stroke-width=".48" d="M.0,4.1C-0.2,2.0,1.0,.1,2.6,.0C4.3,-0.1,5.7,1.5,5.9,3.6C6.1,5.7,4.9,7.5,3.3,7.6C1.7,7.8,.2,6.2,.0,4.1z" transform="matrix(0.999391,-0.034899,0.034899,0.999391,72.046701,89.492453)"/><path id="shape8" fill="#fff" fill-opacity=".29" fill-rule="nonzero" d="M.0,3.5C-0.1,2.0,.4,.7,1.3,.0C1.3,.0,4.9,6.3,4.9,6.3C4.4,6.7,3.9,7.0,3.3,7.0C1.7,7.2,.2,5.6,.0,3.5z" transform="matrix(0.999391,-0.034899,0.034899,0.999391,72.030925,90.091571)"/><path id="shape9" fill="none" stroke="#000" stroke-dasharray="11 5 2.5 5 2.5 5" stroke-width="1" d="M.0,36.6L69.2,.0" transform="translate(88.231100,55.531600)"/><path id="shape10" fill="none" stroke="#000" stroke-dasharray="11 5 2.5 5 2.5 5" stroke-width="1" d="M.0,36.6L69.2,.0" transform="translate(88.231100,59.423200)"/><g id="group11" transform="translate(9.026500,50.424700)"><path id="shape12" fill="#fff" fill-rule="nonzero" stroke="#fff" stroke-width="1" d="M.0,.0L20.3,10.7L20.3,21.8L.0,10.7L.0,.0z"/><path id="shape13" fill="#5fb7f1" fill-rule="nonzero" stroke="#5fb7f1" stroke-width="1" d="M.0,.0L18.4,9.8L18.4,18.3L.0,8.3L.0,.0z" transform="translate(0.845880,1.739420)"/><path id="shape14" fill="#fff" fill-opacity=".29" fill-rule="nonzero" d="M.0,.0L17.6,9.2L17.6,16.9L.0,7.5L.0,.0z" transform="translate(1.273400,2.436220)"/></g><g id="group15" transform="translate(39.339700,67.473700)"><path id="shape16" fill="#fff" fill-rule="nonzero" stroke="#fff" stroke-width="1" d="M.0,.0L20.3,10.7L20.3,21.8L.0,10.7L.0,.0z"/><path id="shape17" fill="#5fb7f1" fill-rule="nonzero" stroke="#5fb7f1" stroke-width="1" d="M.0,.0L18.4,9.8L18.4,18.3L.0,8.3L.0,.0z" transform="translate(0.845880,1.739420)"/><path id="shape18" fill="#fff" fill-opacity=".29" fill-rule="nonzero" d="M.0,.0L17.6,9.2L17.6,16.9L.0,7.5L.0,.0z" transform="translate(1.273400,2.436220)"/></g></g><g id="group19" transform="translate(0.000000,31.280200)"><path id="shape20" fill="#d6d8df" fill-rule="nonzero" stroke="#d6d8df" stroke-width=".5" d="M.0,.0L83.7,44.8L83.7,66.4L.0,21.6L.0,.0z" transform="translate(0.000000,41.030800)"/><path id="shape21" fill="#caccd3" fill-rule="nonzero" stroke="#caccd3" stroke-width=".5" d="M.0,.0L77.8,41.1L77.8,62.8L.0,21.6L.0,.0z" transform="matrix(-1.000000,0.000000,0.000000,1.000000,161.500300,44.670600)"/><path id="shape22" fill="#e2e4e9" fill-rule="nonzero" stroke="#e2e4e9" stroke-width=".5" d="M83.7,85.8L.0,41.0L77.8,.0L161.5,44.7L83.7,85.8z"/><path id="shape23" fill="#01acac" fill-rule="nonzero" stroke="#01acac" stroke-width=".25" d="M.0,5.1C-0.2,2.5,1.3,.2,3.3,.0C5.3,-0.2,7.2,1.8,7.4,4.5C7.6,7.1,6.2,9.4,4.1,9.6C2.1,9.7,.3,7.7,.0,5.1z" transform="matrix(0.999391,-0.034899,0.034899,0.999391,71.260402,88.550650)"/><path id="shape24" fill="#76d7d7" fill-rule="nonzero" stroke="#76d7d7" stroke-width=".48" d="M.0,4.1C-0.2,2.0,1.0,.1,2.6,.0C4.3,-0.1,5.7,1.5,5.9,3.6C6.1,5.7,4.9,7.5,3.3,7.6C1.7,7.8,.2,6.2,.0,4.1z" transform="matrix(0.999391,-0.034899,0.034899,0.999391,72.046701,89.492453)"/><path id="shape25" fill="#fff" fill-opacity=".29" fill-rule="nonzero" d="M.0,3.5C-0.1,2.0,.4,.7,1.3,.0C1.3,.0,4.9,6.3,4.9,6.3C4.4,6.7,3.9,7.0,3.3,7.0C1.7,7.2,.2,5.6,.0,3.5z" transform="matrix(0.999391,-0.034899,0.034899,0.999391,72.030925,90.091571)"/><path id="shape26" fill="none" stroke="#000" stroke-dasharray="11 5 2.5 5 2.5 5" stroke-width="1" d="M.0,36.6L69.2,.0" transform="translate(88.231100,55.531600)"/><path id="shape27" fill="none" stroke="#000" stroke-dasharray="11 5 2.5 5 2.5 5" stroke-width="1" d="M.0,36.6L69.2,.0" transform="translate(88.231100,59.423200)"/><g id="group28" transform="translate(9.026500,50.424700)"><path id="shape29" fill="#fff" fill-rule="nonzero" stroke="#fff" stroke-width="1" d="M.0,.0L20.3,10.7L20.3,21.8L.0,10.7L.0,.0z"/><path id="shape30" fill="#5fb7f1" fill-rule="nonzero" stroke="#5fb7f1" stroke-width="1" d="M.0,.0L18.4,9.8L18.4,18.3L.0,8.3L.0,.0z" transform="translate(0.845880,1.739420)"/><path id="shape31" fill="#fff" fill-opacity=".29" fill-rule="nonzero" d="M.0,.0L17.6,9.2L17.6,16.9L.0,7.5L.0,.0z" transform="translate(1.273400,2.436220)"/></g><g id="group32" transform="translate(39.339700,67.473700)"><path id="shape33" fill="#fff" fill-rule="nonzero" stroke="#fff" stroke-width="1" d="M.0,.0L20.3,10.7L20.3,21.8L.0,10.7L.0,.0z"/><path id="shape34" fill="#5fb7f1" fill-rule="nonzero" stroke="#5fb7f1" stroke-width="1" d="M.0,.0L18.4,9.8L18.4,18.3L.0,8.3L.0,.0z" transform="translate(0.845880,1.739420)"/><path id="shape35" fill="#fff" fill-opacity=".29" fill-rule="nonzero" d="M.0,.0L17.6,9.2L17.6,16.9L.0,7.5L.0,.0z" transform="translate(1.273400,2.436220)"/></g></g><g id="group36"><path id="shape37" fill="#d6d8df" fill-rule="nonzero" stroke="#d6d8df" stroke-width=".5" d="M.0,.0L83.7,44.8L83.7,66.4L.0,21.6L.0,.0z" transform="translate(0.000000,41.030800)"/><path id="shape38" fill="#caccd3" fill-rule="nonzero" stroke="#caccd3" stroke-width=".5" d="M.0,.0L77.8,41.1L77.8,62.8L.0,21.6L.0,.0z" transform="matrix(-1.000000,0.000000,0.000000,1.000000,161.500300,44.670600)"/><path id="shape39" fill="#e2e4e9" fill-rule="nonzero" stroke="#e2e4e9" stroke-width=".5" d="M83.7,85.8L.0,41.0L77.8,.0L161.5,44.7L83.7,85.8z"/><path id="shape40" fill="#01acac" fill-rule="nonzero" stroke="#01acac" stroke-width=".25" d="M.0,5.1C-0.2,2.5,1.3,.2,3.3,.0C5.3,-0.2,7.2,1.8,7.4,4.5C7.6,7.1,6.2,9.4,4.1,9.6C2.1,9.7,.3,7.7,.0,5.1z" transform="matrix(0.999391,-0.034899,0.034899,0.999391,71.260402,88.550650)"/><path id="shape41" fill="#76d7d7" fill-rule="nonzero" stroke="#76d7d7" stroke-width=".48" d="M.0,4.1C-0.2,2.0,1.0,.1,2.6,.0C4.3,-0.1,5.7,1.5,5.9,3.6C6.1,5.7,4.9,7.5,3.3,7.6C1.7,7.8,.2,6.2,.0,4.1z" transform="matrix(0.999391,-0.034899,0.034899,0.999391,72.046701,89.492453)"/><path id="shape42" fill="#fff" fill-opacity=".29" fill-rule="nonzero" d="M.0,3.5C-0.1,2.0,.4,.7,1.3,.0C1.3,.0,4.9,6.3,4.9,6.3C4.4,6.7,3.9,7.0,3.3,7.0C1.7,7.2,.2,5.6,.0,3.5z" transform="matrix(0.999391,-0.034899,0.034899,0.999391,72.030925,90.091571)"/><path id="shape43" fill="none" stroke="#000" stroke-dasharray="11 5 2.5 5 2.5 5" stroke-width="1" d="M.0,36.6L69.2,.0" transform="translate(88.231100,55.531600)"/><path id="shape44" fill="none" stroke="#000" stroke-dasharray="11 5 2.5 5 2.5 5" stroke-width="1" d="M.0,36.6L69.2,.0" transform="translate(88.231100,59.423200)"/><g id="group45" transform="translate(9.026500,50.424700)"><path id="shape46" fill="#fff" fill-rule="nonzero" stroke="#fff" stroke-width="1" d="M.0,.0L20.3,10.7L20.3,21.8L.0,10.7L.0,.0z"/><path id="shape47" fill="#5fb7f1" fill-rule="nonzero" stroke="#5fb7f1" stroke-width="1" d="M.0,.0L18.4,9.8L18.4,18.3L.0,8.3L.0,.0z" transform="translate(0.845880,1.739420)"/><path id="shape48" fill="#fff" fill-opacity=".29" fill-rule="nonzero" d="M.0,.0L17.6,9.2L17.6,16.9L.0,7.5L.0,.0z" transform="translate(1.273400,2.436220)"/></g><g id="group49" transform="translate(39.339700,67.473700)"><path id="shape50" fill="#fff" fill-rule="nonzero" stroke="#fff" stroke-width="1" d="M.0,.0L20.3,10.7L20.3,21.8L.0,10.7L.0,.0z"/><path id="shape51" fill="#5fb7f1" fill-rule="nonzero" stroke="#5fb7f1" stroke-width="1" d="M.0,.0L18.4,9.8L18.4,18.3L.0,8.3L.0,.0z" transform="translate(0.845880,1.739420)"/><path id="shape52" fill="#fff" fill-opacity=".29" fill-rule="nonzero" d="M.0,.0L17.6,9.2L17.6,16.9L.0,7.5L.0,.0z" transform="translate(1.273400,2.436220)"/></g></g></g><g id="shape53"><text xml:space="preserve" style="fill:#e16e6a;font-family:微软雅黑;font-size:20pt" transform="translate(208.000000,232.303000)"><tspan x="22.7" y="44.5">Relay Sever 1</tspan></text></g><g id="group54" transform="translate(1078.210000,430.150000)"><g id="group55" transform="translate(0.000000,62.560200)"><path id="shape56" fill="#d6d8df" fill-rule="nonzero" stroke="#d6d8df" stroke-width=".5" d="M.0,.0L83.7,44.8L83.7,66.4L.0,21.6L.0,.0z" transform="translate(0.000000,41.030800)"/><path id="shape57" fill="#caccd3" fill-rule="nonzero" stroke="#caccd3" stroke-width=".5" d="M.0,.0L77.8,41.1L77.8,62.8L.0,21.6L.0,.0z" transform="matrix(-1.000000,0.000000,0.000000,1.000000,161.500300,44.670600)"/><path id="shape58" fill="#e2e4e9" fill-rule="nonzero" stroke="#e2e4e9" stroke-width=".5" d="M83.7,85.8L.0,41.0L77.8,.0L161.5,44.7L83.7,85.8z"/><path id="shape59" fill="#01acac" fill-rule="nonzero" stroke="#01acac" stroke-width=".25" d="M.0,5.1C-0.2,2.5,1.3,.2,3.3,.0C5.3,-0.2,7.2,1.8,7.4,4.5C7.6,7.1,6.2,9.4,4.1,9.6C2.1,9.7,.3,7.7,.0,5.1z" transform="matrix(0.999391,-0.034899,0.034899,0.999391,71.260402,88.550650)"/><path id="shape60" fill="#76d7d7" fill-rule="nonzero" stroke="#76d7d7" stroke-width=".48" d="M.0,4.1C-0.2,2.0,1.0,.1,2.6,.0C4.3,-0.1,5.7,1.5,5.9,3.6C6.1,5.7,4.9,7.5,3.3,7.6C1.7,7.8,.2,6.2,.0,4.1z" transform="matrix(0.999391,-0.034899,0.034899,0.999391,72.046701,89.492453)"/><path id="shape61" fill="#fff" fill-opacity=".29" fill-rule="nonzero" d="M.0,3.5C-0.1,2.0,.4,.7,1.3,.0C1.3,.0,4.9,6.3,4.9,6.3C4.4,6.7,3.9,7.0,3.3,7.0C1.7,7.2,.2,5.6,.0,3.5z" transform="matrix(0.999391,-0.034899,0.034899,0.999391,72.030925,90.091571)"/><path id="shape62" fill="none" stroke="#000" stroke-dasharray="11 5 2.5 5 2.5 5" stroke-width="1" d="M.0,36.6L69.2,.0" transform="translate(88.231100,55.531600)"/><path id="shape63" fill="none" stroke="#000" stroke-dasharray="11 5 2.5 5 2.5 5" stroke-width="1" d="M.0,36.6L69.2,.0" transform="translate(88.231100,59.423200)"/><g id="group64" transform="translate(9.026500,50.424700)"><path id="shape65" fill="#fff" fill-rule="nonzero" stroke="#fff" stroke-width="1" d="M.0,.0L20.3,10.7L20.3,21.8L.0,10.7L.0,.0z"/><path id="shape66" fill="#5fb7f1" fill-rule="nonzero" stroke="#5fb7f1" stroke-width="1" d="M.0,.0L18.4,9.8L18.4,18.3L.0,8.3L.0,.0z" transform="translate(0.845880,1.739420)"/><path id="shape67" fill="#fff" fill-opacity=".29" fill-rule="nonzero" d="M.0,.0L17.6,9.2L17.6,16.9L.0,7.5L.0,.0z" transform="translate(1.273400,2.436220)"/></g><g id="group68" transform="translate(39.339700,67.473700)"><path id="shape69" fill="#fff" fill-rule="nonzero" stroke="#fff" stroke-width="1" d="M.0,.0L20.3,10.7L20.3,21.8L.0,10.7L.0,.0z"/><path id="shape70" fill="#5fb7f1" fill-rule="nonzero" stroke="#5fb7f1" stroke-width="1" d="M.0,.0L18.4,9.8L18.4,18.3L.0,8.3L.0,.0z" transform="translate(0.845880,1.739420)"/><path id="shape71" fill="#fff" fill-opacity=".29" fill-rule="nonzero" d="M.0,.0L17.6,9.2L17.6,16.9L.0,7.5L.0,.0z" transform="translate(1.273400,2.436220)"/></g></g><g id="group72" transform="translate(0.000000,31.280200)"><path id="shape73" fill="#d6d8df" fill-rule="nonzero" stroke="#d6d8df" stroke-width=".5" d="M.0,.0L83.7,44.8L83.7,66.4L.0,21.6L.0,.0z" transform="translate(0.000000,41.030800)"/><path id="shape74" fill="#caccd3" fill-rule="nonzero" stroke="#caccd3" stroke-width=".5" d="M.0,.0L77.8,41.1L77.8,62.8L.0,21.6L.0,.0z" transform="matrix(-1.000000,0.000000,0.000000,1.000000,161.500300,44.670600)"/><path id="shape75" fill="#e2e4e9" fill-rule="nonzero" stroke="#e2e4e9" stroke-width=".5" d="M83.7,85.8L.0,41.0L77.8,.0L161.5,44.7L83.7,85.8z"/><path id="shape76" fill="#01acac" fill-rule="nonzero" stroke="#01acac" stroke-width=".25" d="M.0,5.1C-0.2,2.5,1.3,.2,3.3,.0C5.3,-0.2,7.2,1.8,7.4,4.5C7.6,7.1,6.2,9.4,4.1,9.6C2.1,9.7,.3,7.7,.0,5.1z" transform="matrix(0.999391,-0.034899,0.034899,0.999391,71.260402,88.550650)"/><path id="shape77" fill="#76d7d7" fill-rule="nonzero" stroke="#76d7d7" stroke-width=".48" d="M.0,4.1C-0.2,2.0,1.0,.1,2.6,.0C4.3,-0.1,5.7,1.5,5.9,3.6C6.1,5.7,4.9,7.5,3.3,7.6C1.7,7.8,.2,6.2,.0,4.1z" transform="matrix(0.999391,-0.034899,0.034899,0.999391,72.046701,89.492453)"/><path id="shape78" fill="#fff" fill-opacity=".29" fill-rule="nonzero" d="M.0,3.5C-0.1,2.0,.4,.7,1.3,.0C1.3,.0,4.9,6.3,4.9,6.3C4.4,6.7,3.9,7.0,3.3,7.0C1.7,7.2,.2,5.6,.0,3.5z" transform="matrix(0.999391,-0.034899,0.034899,0.999391,72.030925,90.091571)"/><path id="shape79" fill="none" stroke="#000" stroke-dasharray="11 5 2.5 5 2.5 5" stroke-width="1" d="M.0,36.6L69.2,.0" transform="translate(88.231100,55.531600)"/><path id="shape80" fill="none" stroke="#000" stroke-dasharray="11 5 2.5 5 2.5 5" stroke-width="1" d="M.0,36.6L69.2,.0" transform="translate(88.231100,59.423200)"/><g id="group81" transform="translate(9.026500,50.424700)"><path id="shape82" fill="#fff" fill-rule="nonzero" stroke="#fff" stroke-width="1" d="M.0,.0L20.3,10.7L20.3,21.8L.0,10.7L.0,.0z"/><path id="shape83" fill="#5fb7f1" fill-rule="nonzero" stroke="#5fb7f1" stroke-width="1" d="M.0,.0L18.4,9.8L18.4,18.3L.0,8.3L.0,.0z" transform="translate(0.845880,1.739420)"/><path id="shape84" fill="#fff" fill-opacity=".29" fill-rule="nonzero" d="M.0,.0L17.6,9.2L17.6,16.9L.0,7.5L.0,.0z" transform="translate(1.273400,2.436220)"/></g><g id="group85" transform="translate(39.339700,67.473700)"><path id="shape86" fill="#fff" fill-rule="nonzero" stroke="#fff" stroke-width="1" d="M.0,.0L20.3,10.7L20.3,21.8L.0,10.7L.0,.0z"/><path id="shape87" fill="#5fb7f1" fill-rule="nonzero" stroke="#5fb7f1" stroke-width="1" d="M.0,.0L18.4,9.8L18.4,18.3L.0,8.3L.0,.0z" transform="translate(0.845880,1.739420)"/><path id="shape88" fill="#fff" fill-opacity=".29" fill-rule="nonzero" d="M.0,.0L17.6,9.2L17.6,16.9L.0,7.5L.0,.0z" transform="translate(1.273400,2.436220)"/></g></g><g id="group89"><path id="shape90" fill="#d6d8df" fill-rule="nonzero" stroke="#d6d8df" stroke-width=".5" d="M.0,.0L83.7,44.8L83.7,66.4L.0,21.6L.0,.0z" transform="translate(0.000000,41.030800)"/><path id="shape91" fill="#caccd3" fill-rule="nonzero" stroke="#caccd3" stroke-width=".5" d="M.0,.0L77.8,41.1L77.8,62.8L.0,21.6L.0,.0z" transform="matrix(-1.000000,0.000000,0.000000,1.000000,161.500300,44.670600)"/><path id="shape92" fill="#e2e4e9" fill-rule="nonzero" stroke="#e2e4e9" stroke-width=".5" d="M83.7,85.8L.0,41.0L77.8,.0L161.5,44.7L83.7,85.8z"/><path id="shape93" fill="#01acac" fill-rule="nonzero" stroke="#01acac" stroke-width=".25" d="M.0,5.1C-0.2,2.5,1.3,.2,3.3,.0C5.3,-0.2,7.2,1.8,7.4,4.5C7.6,7.1,6.2,9.4,4.1,9.6C2.1,9.7,.3,7.7,.0,5.1z" transform="matrix(0.999391,-0.034899,0.034899,0.999391,71.260402,88.550650)"/><path id="shape94" fill="#76d7d7" fill-rule="nonzero" stroke="#76d7d7" stroke-width=".48" d="M.0,4.1C-0.2,2.0,1.0,.1,2.6,.0C4.3,-0.1,5.7,1.5,5.9,3.6C6.1,5.7,4.9,7.5,3.3,7.6C1.7,7.8,.2,6.2,.0,4.1z" transform="matrix(0.999391,-0.034899,0.034899,0.999391,72.046701,89.492453)"/><path id="shape95" fill="#fff" fill-opacity=".29" fill-rule="nonzero" d="M.0,3.5C-0.1,2.0,.4,.7,1.3,.0C1.3,.0,4.9,6.3,4.9,6.3C4.4,6.7,3.9,7.0,3.3,7.0C1.7,7.2,.2,5.6,.0,3.5z" transform="matrix(0.999391,-0.034899,0.034899,0.999391,72.030925,90.091571)"/><path id="shape96" fill="none" stroke="#000" stroke-dasharray="11 5 2.5 5 2.5 5" stroke-width="1" d="M.0,36.6L69.2,.0" transform="translate(88.231100,55.531600)"/><path id="shape97" fill="none" stroke="#000" stroke-dasharray="11 5 2.5 5 2.5 5" stroke-width="1" d="M.0,36.6L69.2,.0" transform="translate(88.231100,59.423200)"/><g id="group98" transform="translate(9.026500,50.424700)"><path id="shape99" fill="#fff" fill-rule="nonzero" stroke="#fff" stroke-width="1" d="M.0,.0L20.3,10.7L20.3,21.8L.0,10.7L.0,.0z"/><path id="shape100" fill="#5fb7f1" fill-rule="nonzero" stroke="#5fb7f1" stroke-width="1" d="M.0,.0L18.4,9.8L18.4,18.3L.0,8.3L.0,.0z" transform="translate(0.845880,1.739420)"/><path id="shape101" fill="#fff" fill-opacity=".29" fill-rule="nonzero" d="M.0,.0L17.6,9.2L17.6,16.9L.0,7.5L.0,.0z" transform="translate(1.273400,2.436220)"/></g><g id="group102" transform="translate(39.339700,67.473700)"><path id="shape103" fill="#fff" fill-rule="nonzero" stroke="#fff" stroke-width="1" d="M.0,.0L20.3,10.7L20.3,21.8L.0,10.7L.0,.0z"/><path id="shape104" fill="#5fb7f1" fill-rule="nonzero" stroke="#5fb7f1" stroke-width="1" d="M.0,.0L18.4,9.8L18.4,18.3L.0,8.3L.0,.0z" transform="translate(0.845880,1.739420)"/><path id="shape105" fill="#fff" fill-opacity=".29" fill-rule="nonzero" d="M.0,.0L17.6,9.2L17.6,16.9L.0,7.5L.0,.0z" transform="translate(1.273400,2.436220)"/></g></g></g><g id="group106" transform="translate(729.697000,586.000000)"><g id="group107" transform="translate(0.000000,62.560200)"><path id="shape108" fill="#d6d8df" fill-rule="nonzero" stroke="#d6d8df" stroke-width=".5" d="M.0,.0L83.7,44.8L83.7,66.4L.0,21.6L.0,.0z" transform="translate(0.000000,41.030800)"/><path id="shape109" fill="#caccd3" fill-rule="nonzero" stroke="#caccd3" stroke-width=".5" d="M.0,.0L77.8,41.1L77.8,62.8L.0,21.6L.0,.0z" transform="matrix(-1.000000,0.000000,0.000000,1.000000,161.500300,44.670600)"/><path id="shape110" fill="#e2e4e9" fill-rule="nonzero" stroke="#e2e4e9" stroke-width=".5" d="M83.7,85.8L.0,41.0L77.8,.0L161.5,44.7L83.7,85.8z"/><path id="shape111" fill="#01acac" fill-rule="nonzero" stroke="#01acac" stroke-width=".25" d="M.0,5.1C-0.2,2.5,1.3,.2,3.3,.0C5.3,-0.2,7.2,1.8,7.4,4.5C7.6,7.1,6.2,9.4,4.1,9.6C2.1,9.7,.3,7.7,.0,5.1z" transform="matrix(0.999391,-0.034899,0.034899,0.999391,71.260402,88.550650)"/><path id="shape112" fill="#76d7d7" fill-rule="nonzero" stroke="#76d7d7" stroke-width=".48" d="M.0,4.1C-0.2,2.0,1.0,.1,2.6,.0C4.3,-0.1,5.7,1.5,5.9,3.6C6.1,5.7,4.9,7.5,3.3,7.6C1.7,7.8,.2,6.2,.0,4.1z" transform="matrix(0.999391,-0.034899,0.034899,0.999391,72.046701,89.492453)"/><path id="shape113" fill="#fff" fill-opacity=".29" fill-rule="nonzero" d="M.0,3.5C-0.1,2.0,.4,.7,1.3,.0C1.3,.0,4.9,6.3,4.9,6.3C4.4,6.7,3.9,7.0,3.3,7.0C1.7,7.2,.2,5.6,.0,3.5z" transform="matrix(0.999391,-0.034899,0.034899,0.999391,72.030925,90.091571)"/><path id="shape114" fill="none" stroke="#000" stroke-dasharray="11 5 2.5 5 2.5 5" stroke-width="1" d="M.0,36.6L69.2,.0" transform="translate(88.231100,55.531600)"/><path id="shape115" fill="none" stroke="#000" stroke-dasharray="11 5 2.5 5 2.5 5" stroke-width="1" d="M.0,36.6L69.2,.0" transform="translate(88.231100,59.423200)"/><g id="group116" transform="translate(9.026500,50.424700)"><path id="shape117" fill="#fff" fill-rule="nonzero" stroke="#fff" stroke-width="1" d="M.0,.0L20.3,10.7L20.3,21.8L.0,10.7L.0,.0z"/><path id="shape118" fill="#5fb7f1" fill-rule="nonzero" stroke="#5fb7f1" stroke-width="1" d="M.0,.0L18.4,9.8L18.4,18.3L.0,8.3L.0,.0z" transform="translate(0.845880,1.739420)"/><path id="shape119" fill="#fff" fill-opacity=".29" fill-rule="nonzero" d="M.0,.0L17.6,9.2L17.6,16.9L.0,7.5L.0,.0z" transform="translate(1.273400,2.436220)"/></g><g id="group120" transform="translate(39.339700,67.473700)"><path id="shape121" fill="#fff" fill-rule="nonzero" stroke="#fff" stroke-width="1" d="M.0,.0L20.3,10.7L20.3,21.8L.0,10.7L.0,.0z"/><path id="shape122" fill="#5fb7f1" fill-rule="nonzero" stroke="#5fb7f1" stroke-width="1" d="M.0,.0L18.4,9.8L18.4,18.3L.0,8.3L.0,.0z" transform="translate(0.845880,1.739420)"/><path id="shape123" fill="#fff" fill-opacity=".29" fill-rule="nonzero" d="M.0,.0L17.6,9.2L17.6,16.9L.0,7.5L.0,.0z" transform="translate(1.273400,2.436220)"/></g></g><g id="group124" transform="translate(0.000000,31.280200)"><path id="shape125" fill="#d6d8df" fill-rule="nonzero" stroke="#d6d8df" stroke-width=".5" d="M.0,.0L83.7,44.8L83.7,66.4L.0,21.6L.0,.0z" transform="translate(0.000000,41.030800)"/><path id="shape126" fill="#caccd3" fill-rule="nonzero" stroke="#caccd3" stroke-width=".5" d="M.0,.0L77.8,41.1L77.8,62.8L.0,21.6L.0,.0z" transform="matrix(-1.000000,0.000000,0.000000,1.000000,161.500300,44.670600)"/><path id="shape127" fill="#e2e4e9" fill-rule="nonzero" stroke="#e2e4e9" stroke-width=".5" d="M83.7,85.8L.0,41.0L77.8,.0L161.5,44.7L83.7,85.8z"/><path id="shape128" fill="#01acac" fill-rule="nonzero" stroke="#01acac" stroke-width=".25" d="M.0,5.1C-0.2,2.5,1.3,.2,3.3,.0C5.3,-0.2,7.2,1.8,7.4,4.5C7.6,7.1,6.2,9.4,4.1,9.6C2.1,9.7,.3,7.7,.0,5.1z" transform="matrix(0.999391,-0.034899,0.034899,0.999391,71.260402,88.550650)"/><path id="shape129" fill="#76d7d7" fill-rule="nonzero" stroke="#76d7d7" stroke-width=".48" d="M.0,4.1C-0.2,2.0,1.0,.1,2.6,.0C4.3,-0.1,5.7,1.5,5.9,3.6C6.1,5.7,4.9,7.5,3.3,7.6C1.7,7.8,.2,6.2,.0,4.1z" transform="matrix(0.999391,-0.034899,0.034899,0.999391,72.046701,89.492453)"/><path id="shape130" fill="#fff" fill-opacity=".29" fill-rule="nonzero" d="M.0,3.5C-0.1,2.0,.4,.7,1.3,.0C1.3,.0,4.9,6.3,4.9,6.3C4.4,6.7,3.9,7.0,3.3,7.0C1.7,7.2,.2,5.6,.0,3.5z" transform="matrix(0.999391,-0.034899,0.034899,0.999391,72.030925,90.091571)"/><path id="shape131" fill="none" stroke="#000" stroke-dasharray="11 5 2.5 5 2.5 5" stroke-width="1" d="M.0,36.6L69.2,.0" transform="translate(88.231100,55.531600)"/><path id="shape132" fill="none" stroke="#000" stroke-dasharray="11 5 2.5 5 2.5 5" stroke-width="1" d="M.0,36.6L69.2,.0" transform="translate(88.231100,59.423200)"/><g id="group133" transform="translate(9.026500,50.424700)"><path id="shape134" fill="#fff" fill-rule="nonzero" stroke="#fff" stroke-width="1" d="M.0,.0L20.3,10.7L20.3,21.8L.0,10.7L.0,.0z"/><path id="shape135" fill="#5fb7f1" fill-rule="nonzero" stroke="#5fb7f1" stroke-width="1" d="M.0,.0L18.4,9.8L18.4,18.3L.0,8.3L.0,.0z" transform="translate(0.845880,1.739420)"/><path id="shape136" fill="#fff" fill-opacity=".29" fill-rule="nonzero" d="M.0,.0L17.6,9.2L17.6,16.9L.0,7.5L.0,.0z" transform="translate(1.273400,2.436220)"/></g><g id="group137" transform="translate(39.339700,67.473700)"><path id="shape138" fill="#fff" fill-rule="nonzero" stroke="#fff" stroke-width="1" d="M.0,.0L20.3,10.7L20.3,21.8L.0,10.7L.0,.0z"/><path id="shape139" fill="#5fb7f1" fill-rule="nonzero" stroke="#5fb7f1" stroke-width="1" d="M.0,.0L18.4,9.8L18.4,18.3L.0,8.3L.0,.0z" transform="translate(0.845880,1.739420)"/><path id="shape140" fill="#fff" fill-opacity=".29" fill-rule="nonzero" d="M.0,.0L17.6,9.2L17.6,16.9L.0,7.5L.0,.0z" transform="translate(1.273400,2.436220)"/></g></g><g id="group141"><path id="shape142" fill="#d6d8df" fill-rule="nonzero" stroke="#d6d8df" stroke-width=".5" d="M.0,.0L83.7,44.8L83.7,66.4L.0,21.6L.0,.0z" transform="translate(0.000000,41.030800)"/><path id="shape143" fill="#caccd3" fill-rule="nonzero" stroke="#caccd3" stroke-width=".5" d="M.0,.0L77.8,41.1L77.8,62.8L.0,21.6L.0,.0z" transform="matrix(-1.000000,0.000000,0.000000,1.000000,161.500300,44.670600)"/><path id="shape144" fill="#e2e4e9" fill-rule="nonzero" stroke="#e2e4e9" stroke-width=".5" d="M83.7,85.8L.0,41.0L77.8,.0L161.5,44.7L83.7,85.8z"/><path id="shape145" fill="#01acac" fill-rule="nonzero" stroke="#01acac" stroke-width=".25" d="M.0,5.1C-0.2,2.5,1.3,.2,3.3,.0C5.3,-0.2,7.2,1.8,7.4,4.5C7.6,7.1,6.2,9.4,4.1,9.6C2.1,9.7,.3,7.7,.0,5.1z" transform="matrix(0.999391,-0.034899,0.034899,0.999391,71.260402,88.550650)"/><path id="shape146" fill="#76d7d7" fill-rule="nonzero" stroke="#76d7d7" stroke-width=".48" d="M.0,4.1C-0.2,2.0,1.0,.1,2.6,.0C4.3,-0.1,5.7,1.5,5.9,3.6C6.1,5.7,4.9,7.5,3.3,7.6C1.7,7.8,.2,6.2,.0,4.1z" transform="matrix(0.999391,-0.034899,0.034899,0.999391,72.046701,89.492453)"/><path id="shape147" fill="#fff" fill-opacity=".29" fill-rule="nonzero" d="M.0,3.5C-0.1,2.0,.4,.7,1.3,.0C1.3,.0,4.9,6.3,4.9,6.3C4.4,6.7,3.9,7.0,3.3,7.0C1.7,7.2,.2,5.6,.0,3.5z" transform="matrix(0.999391,-0.034899,0.034899,0.999391,72.030925,90.091571)"/><path id="shape148" fill="none" stroke="#000" stroke-dasharray="11 5 2.5 5 2.5 5" stroke-width="1" d="M.0,36.6L69.2,.0" transform="translate(88.231100,55.531600)"/><path id="shape149" fill="none" stroke="#000" stroke-dasharray="11 5 2.5 5 2.5 5" stroke-width="1" d="M.0,36.6L69.2,.0" transform="translate(88.231100,59.423200)"/><g id="group150" transform="translate(9.026500,50.424700)"><path id="shape151" fill="#fff" fill-rule="nonzero" stroke="#fff" stroke-width="1" d="M.0,.0L20.3,10.7L20.3,21.8L.0,10.7L.0,.0z"/><path id="shape152" fill="#5fb7f1" fill-rule="nonzero" stroke="#5fb7f1" stroke-width="1" d="M.0,.0L18.4,9.8L18.4,18.3L.0,8.3L.0,.0z" transform="translate(0.845880,1.739420)"/><path id="shape153" fill="#fff" fill-opacity=".29" fill-rule="nonzero" d="M.0,.0L17.6,9.2L17.6,16.9L.0,7.5L.0,.0z" transform="translate(1.273400,2.436220)"/></g><g id="group154" transform="translate(39.339700,67.473700)"><path id="shape155" fill="#fff" fill-rule="nonzero" stroke="#fff" stroke-width="1" d="M.0,.0L20.3,10.7L20.3,21.8L.0,10.7L.0,.0z"/><path id="shape156" fill="#5fb7f1" fill-rule="nonzero" stroke="#5fb7f1" stroke-width="1" d="M.0,.0L18.4,9.8L18.4,18.3L.0,8.3L.0,.0z" transform="translate(0.845880,1.739420)"/><path id="shape157" fill="#fff" fill-opacity=".29" fill-rule="nonzero" d="M.0,.0L17.6,9.2L17.6,16.9L.0,7.5L.0,.0z" transform="translate(1.273400,2.436220)"/></g></g></g><g id="group158" transform="translate(1400.200000,236.000000)"><g id="group159" transform="translate(0.000000,62.560200)"><path id="shape160" fill="#d6d8df" fill-rule="nonzero" stroke="#d6d8df" stroke-width=".5" d="M.0,.0L83.7,44.8L83.7,66.4L.0,21.6L.0,.0z" transform="translate(0.000000,41.030800)"/><path id="shape161" fill="#caccd3" fill-rule="nonzero" stroke="#caccd3" stroke-width=".5" d="M.0,.0L77.8,41.1L77.8,62.8L.0,21.6L.0,.0z" transform="matrix(-1.000000,0.000000,0.000000,1.000000,161.500300,44.670600)"/><path id="shape162" fill="#e2e4e9" fill-rule="nonzero" stroke="#e2e4e9" stroke-width=".5" d="M83.7,85.8L.0,41.0L77.8,.0L161.5,44.7L83.7,85.8z"/><path id="shape163" fill="#01acac" fill-rule="nonzero" stroke="#01acac" stroke-width=".25" d="M.0,5.1C-0.2,2.5,1.3,.2,3.3,.0C5.3,-0.2,7.2,1.8,7.4,4.5C7.6,7.1,6.2,9.4,4.1,9.6C2.1,9.7,.3,7.7,.0,5.1z" transform="matrix(0.999391,-0.034899,0.034899,0.999391,71.260402,88.550650)"/><path id="shape164" fill="#76d7d7" fill-rule="nonzero" stroke="#76d7d7" stroke-width=".48" d="M.0,4.1C-0.2,2.0,1.0,.1,2.6,.0C4.3,-0.1,5.7,1.5,5.9,3.6C6.1,5.7,4.9,7.5,3.3,7.6C1.7,7.8,.2,6.2,.0,4.1z" transform="matrix(0.999391,-0.034899,0.034899,0.999391,72.046701,89.492453)"/><path id="shape165" fill="#fff" fill-opacity=".29" fill-rule="nonzero" d="M.0,3.5C-0.1,2.0,.4,.7,1.3,.0C1.3,.0,4.9,6.3,4.9,6.3C4.4,6.7,3.9,7.0,3.3,7.0C1.7,7.2,.2,5.6,.0,3.5z" transform="matrix(0.999391,-0.034899,0.034899,0.999391,72.030925,90.091571)"/><path id="shape166" fill="none" stroke="#000" stroke-dasharray="11 5 2.5 5 2.5 5" stroke-width="1" d="M.0,36.6L69.2,.0" transform="translate(88.231100,55.531600)"/><path id="shape167" fill="none" stroke="#000" stroke-dasharray="11 5 2.5 5 2.5 5" stroke-width="1" d="M.0,36.6L69.2,.0" transform="translate(88.231100,59.423200)"/><g id="group168" transform="translate(9.026500,50.424700)"><path id="shape169" fill="#fff" fill-rule="nonzero" stroke="#fff" stroke-width="1" d="M.0,.0L20.3,10.7L20.3,21.8L.0,10.7L.0,.0z"/><path id="shape170" fill="#5fb7f1" fill-rule="nonzero" stroke="#5fb7f1" stroke-width="1" d="M.0,.0L18.4,9.8L18.4,18.3L.0,8.3L.0,.0z" transform="translate(0.845880,1.739420)"/><path id="shape171" fill="#fff" fill-opacity=".29" fill-rule="nonzero" d="M.0,.0L17.6,9.2L17.6,16.9L.0,7.5L.0,.0z" transform="translate(1.273400,2.436220)"/></g><g id="group172" transform="translate(39.339700,67.473700)"><path id="shape173" fill="#fff" fill-rule="nonzero" stroke="#fff" stroke-width="1" d="M.0,.0L20.3,10.7L20.3,21.8L.0,10.7L.0,.0z"/><path id="shape174" fill="#5fb7f1" fill-rule="nonzero" stroke="#5fb7f1" stroke-width="1" d="M.0,.0L18.4,9.8L18.4,18.3L.0,8.3L.0,.0z" transform="translate(0.845880,1.739420)"/><path id="shape175" fill="#fff" fill-opacity=".29" fill-rule="nonzero" d="M.0,.0L17.6,9.2L17.6,16.9L.0,7.5L.0,.0z" transform="translate(1.273400,2.436220)"/></g></g><g id="group176" transform="translate(0.000000,31.280200)"><path id="shape177" fill="#d6d8df" fill-rule="nonzero" stroke="#d6d8df" stroke-width=".5" d="M.0,.0L83.7,44.8L83.7,66.4L.0,21.6L.0,.0z" transform="translate(0.000000,41.030800)"/><path id="shape178" fill="#caccd3" fill-rule="nonzero" stroke="#caccd3" stroke-width=".5" d="M.0,.0L77.8,41.1L77.8,62.8L.0,21.6L.0,.0z" transform="matrix(-1.000000,0.000000,0.000000,1.000000,161.500300,44.670600)"/><path id="shape179" fill="#e2e4e9" fill-rule="nonzero" stroke="#e2e4e9" stroke-width=".5" d="M83.7,85.8L.0,41.0L77.8,.0L161.5,44.7L83.7,85.8z"/><path id="shape180" fill="#01acac" fill-rule="nonzero" stroke="#01acac" stroke-width=".25" d="M.0,5.1C-0.2,2.5,1.3,.2,3.3,.0C5.3,-0.2,7.2,1.8,7.4,4.5C7.6,7.1,6.2,9.4,4.1,9.6C2.1,9.7,.3,7.7,.0,5.1z" transform="matrix(0.999391,-0.034899,0.034899,0.999391,71.260402,88.550650)"/><path id="shape181" fill="#76d7d7" fill-rule="nonzero" stroke="#76d7d7" stroke-width=".48" d="M.0,4.1C-0.2,2.0,1.0,.1,2.6,.0C4.3,-0.1,5.7,1.5,5.9,3.6C6.1,5.7,4.9,7.5,3.3,7.6C1.7,7.8,.2,6.2,.0,4.1z" transform="matrix(0.999391,-0.034899,0.034899,0.999391,72.046701,89.492453)"/><path id="shape182" fill="#fff" fill-opacity=".29" fill-rule="nonzero" d="M.0,3.5C-0.1,2.0,.4,.7,1.3,.0C1.3,.0,4.9,6.3,4.9,6.3C4.4,6.7,3.9,7.0,3.3,7.0C1.7,7.2,.2,5.6,.0,3.5z" transform="matrix(0.999391,-0.034899,0.034899,0.999391,72.030925,90.091571)"/><path id="shape183" fill="none" stroke="#000" stroke-dasharray="11 5 2.5 5 2.5 5" stroke-width="1" d="M.0,36.6L69.2,.0" transform="translate(88.231100,55.531600)"/><path id="shape184" fill="none" stroke="#000" stroke-dasharray="11 5 2.5 5 2.5 5" stroke-width="1" d="M.0,36.6L69.2,.0" transform="translate(88.231100,59.423200)"/><g id="group185" transform="translate(9.026500,50.424700)"><path id="shape186" fill="#fff" fill-rule="nonzero" stroke="#fff" stroke-width="1" d="M.0,.0L20.3,10.7L20.3,21.8L.0,10.7L.0,.0z"/><path id="shape187" fill="#5fb7f1" fill-rule="nonzero" stroke="#5fb7f1" stroke-width="1" d="M.0,.0L18.4,9.8L18.4,18.3L.0,8.3L.0,.0z" transform="translate(0.845880,1.739420)"/><path id="shape188" fill="#fff" fill-opacity=".29" fill-rule="nonzero" d="M.0,.0L17.6,9.2L17.6,16.9L.0,7.5L.0,.0z" transform="translate(1.273400,2.436220)"/></g><g id="group189" transform="translate(39.339700,67.473700)"><path id="shape190" fill="#fff" fill-rule="nonzero" stroke="#fff" stroke-width="1" d="M.0,.0L20.3,10.7L20.3,21.8L.0,10.7L.0,.0z"/><path id="shape191" fill="#5fb7f1" fill-rule="nonzero" stroke="#5fb7f1" stroke-width="1" d="M.0,.0L18.4,9.8L18.4,18.3L.0,8.3L.0,.0z" transform="translate(0.845880,1.739420)"/><path id="shape192" fill="#fff" fill-opacity=".29" fill-rule="nonzero" d="M.0,.0L17.6,9.2L17.6,16.9L.0,7.5L.0,.0z" transform="translate(1.273400,2.436220)"/></g></g><g id="group193"><path id="shape194" fill="#d6d8df" fill-rule="nonzero" stroke="#d6d8df" stroke-width=".5" d="M.0,.0L83.7,44.8L83.7,66.4L.0,21.6L.0,.0z" transform="translate(0.000000,41.030800)"/><path id="shape195" fill="#caccd3" fill-rule="nonzero" stroke="#caccd3" stroke-width=".5" d="M.0,.0L77.8,41.1L77.8,62.8L.0,21.6L.0,.0z" transform="matrix(-1.000000,0.000000,0.000000,1.000000,161.500300,44.670600)"/><path id="shape196" fill="#e2e4e9" fill-rule="nonzero" stroke="#e2e4e9" stroke-width=".5" d="M83.7,85.8L.0,41.0L77.8,.0L161.5,44.7L83.7,85.8z"/><path id="shape197" fill="#01acac" fill-rule="nonzero" stroke="#01acac" stroke-width=".25" d="M.0,5.1C-0.2,2.5,1.3,.2,3.3,.0C5.3,-0.2,7.2,1.8,7.4,4.5C7.6,7.1,6.2,9.4,4.1,9.6C2.1,9.7,.3,7.7,.0,5.1z" transform="matrix(0.999391,-0.034899,0.034899,0.999391,71.260402,88.550650)"/><path id="shape198" fill="#76d7d7" fill-rule="nonzero" stroke="#76d7d7" stroke-width=".48" d="M.0,4.1C-0.2,2.0,1.0,.1,2.6,.0C4.3,-0.1,5.7,1.5,5.9,3.6C6.1,5.7,4.9,7.5,3.3,7.6C1.7,7.8,.2,6.2,.0,4.1z" transform="matrix(0.999391,-0.034899,0.034899,0.999391,72.046701,89.492453)"/><path id="shape199" fill="#fff" fill-opacity=".29" fill-rule="nonzero" d="M.0,3.5C-0.1,2.0,.4,.7,1.3,.0C1.3,.0,4.9,6.3,4.9,6.3C4.4,6.7,3.9,7.0,3.3,7.0C1.7,7.2,.2,5.6,.0,3.5z" transform="matrix(0.999391,-0.034899,0.034899,0.999391,72.030925,90.091571)"/><path id="shape200" fill="none" stroke="#000" stroke-dasharray="11 5 2.5 5 2.5 5" stroke-width="1" d="M.0,36.6L69.2,.0" transform="translate(88.231100,55.531600)"/><path id="shape201" fill="none" stroke="#000" stroke-dasharray="11 5 2.5 5 2.5 5" stroke-width="1" d="M.0,36.6L69.2,.0" transform="translate(88.231100,59.423200)"/><g id="group202" transform="translate(9.026500,50.424700)"><path id="shape203" fill="#fff" fill-rule="nonzero" stroke="#fff" stroke-width="1" d="M.0,.0L20.3,10.7L20.3,21.8L.0,10.7L.0,.0z"/><path id="shape204" fill="#5fb7f1" fill-rule="nonzero" stroke="#5fb7f1" stroke-width="1" d="M.0,.0L18.4,9.8L18.4,18.3L.0,8.3L.0,.0z" transform="translate(0.845880,1.739420)"/><path id="shape205" fill="#fff" fill-opacity=".29" fill-rule="nonzero" d="M.0,.0L17.6,9.2L17.6,16.9L.0,7.5L.0,.0z" transform="translate(1.273400,2.436220)"/></g><g id="group206" transform="translate(39.339700,67.473700)"><path id="shape207" fill="#fff" fill-rule="nonzero" stroke="#fff" stroke-width="1" d="M.0,.0L20.3,10.7L20.3,21.8L.0,10.7L.0,.0z"/><path id="shape208" fill="#5fb7f1" fill-rule="nonzero" stroke="#5fb7f1" stroke-width="1" d="M.0,.0L18.4,9.8L18.4,18.3L.0,8.3L.0,.0z" transform="translate(0.845880,1.739420)"/><path id="shape209" fill="#fff" fill-opacity=".29" fill-rule="nonzero" d="M.0,.0L17.6,9.2L17.6,16.9L.0,7.5L.0,.0z" transform="translate(1.273400,2.436220)"/></g></g></g><g id="group210" transform="translate(1456.200000,586.000000)"><g id="group211" transform="translate(0.000000,62.560200)"><path id="shape212" fill="#d6d8df" fill-rule="nonzero" stroke="#d6d8df" stroke-width=".5" d="M.0,.0L83.7,44.8L83.7,66.4L.0,21.6L.0,.0z" transform="translate(0.000000,41.030800)"/><path id="shape213" fill="#caccd3" fill-rule="nonzero" stroke="#caccd3" stroke-width=".5" d="M.0,.0L77.8,41.1L77.8,62.8L.0,21.6L.0,.0z" transform="matrix(-1.000000,0.000000,0.000000,1.000000,161.500300,44.670600)"/><path id="shape214" fill="#e2e4e9" fill-rule="nonzero" stroke="#e2e4e9" stroke-width=".5" d="M83.7,85.8L.0,41.0L77.8,.0L161.5,44.7L83.7,85.8z"/><path id="shape215" fill="#01acac" fill-rule="nonzero" stroke="#01acac" stroke-width=".25" d="M.0,5.1C-0.2,2.5,1.3,.2,3.3,.0C5.3,-0.2,7.2,1.8,7.4,4.5C7.6,7.1,6.2,9.4,4.1,9.6C2.1,9.7,.3,7.7,.0,5.1z" transform="matrix(0.999391,-0.034899,0.034899,0.999391,71.260402,88.550650)"/><path id="shape216" fill="#76d7d7" fill-rule="nonzero" stroke="#76d7d7" stroke-width=".48" d="M.0,4.1C-0.2,2.0,1.0,.1,2.6,.0C4.3,-0.1,5.7,1.5,5.9,3.6C6.1,5.7,4.9,7.5,3.3,7.6C1.7,7.8,.2,6.2,.0,4.1z" transform="matrix(0.999391,-0.034899,0.034899,0.999391,72.046701,89.492453)"/><path id="shape217" fill="#fff" fill-opacity=".29" fill-rule="nonzero" d="M.0,3.5C-0.1,2.0,.4,.7,1.3,.0C1.3,.0,4.9,6.3,4.9,6.3C4.4,6.7,3.9,7.0,3.3,7.0C1.7,7.2,.2,5.6,.0,3.5z" transform="matrix(0.999391,-0.034899,0.034899,0.999391,72.030925,90.091571)"/><path id="shape218" fill="none" stroke="#000" stroke-dasharray="11 5 2.5 5 2.5 5" stroke-width="1" d="M.0,36.6L69.2,.0" transform="translate(88.231100,55.531600)"/><path id="shape219" fill="none" stroke="#000" stroke-dasharray="11 5 2.5 5 2.5 5" stroke-width="1" d="M.0,36.6L69.2,.0" transform="translate(88.231100,59.423200)"/><g id="group220" transform="translate(9.026500,50.424700)"><path id="shape221" fill="#fff" fill-rule="nonzero" stroke="#fff" stroke-width="1" d="M.0,.0L20.3,10.7L20.3,21.8L.0,10.7L.0,.0z"/><path id="shape222" fill="#5fb7f1" fill-rule="nonzero" stroke="#5fb7f1" stroke-width="1" d="M.0,.0L18.4,9.8L18.4,18.3L.0,8.3L.0,.0z" transform="translate(0.845880,1.739420)"/><path id="shape223" fill="#fff" fill-opacity=".29" fill-rule="nonzero" d="M.0,.0L17.6,9.2L17.6,16.9L.0,7.5L.0,.0z" transform="translate(1.273400,2.436220)"/></g><g id="group224" transform="translate(39.339700,67.473700)"><path id="shape225" fill="#fff" fill-rule="nonzero" stroke="#fff" stroke-width="1" d="M.0,.0L20.3,10.7L20.3,21.8L.0,10.7L.0,.0z"/><path id="shape226" fill="#5fb7f1" fill-rule="nonzero" stroke="#5fb7f1" stroke-width="1" d="M.0,.0L18.4,9.8L18.4,18.3L.0,8.3L.0,.0z" transform="translate(0.845880,1.739420)"/><path id="shape227" fill="#fff" fill-opacity=".29" fill-rule="nonzero" d="M.0,.0L17.6,9.2L17.6,16.9L.0,7.5L.0,.0z" transform="translate(1.273400,2.436220)"/></g></g><g id="group228" transform="translate(0.000000,31.280200)"><path id="shape229" fill="#d6d8df" fill-rule="nonzero" stroke="#d6d8df" stroke-width=".5" d="M.0,.0L83.7,44.8L83.7,66.4L.0,21.6L.0,.0z" transform="translate(0.000000,41.030800)"/><path id="shape230" fill="#caccd3" fill-rule="nonzero" stroke="#caccd3" stroke-width=".5" d="M.0,.0L77.8,41.1L77.8,62.8L.0,21.6L.0,.0z" transform="matrix(-1.000000,0.000000,0.000000,1.000000,161.500300,44.670600)"/><path id="shape231" fill="#e2e4e9" fill-rule="nonzero" stroke="#e2e4e9" stroke-width=".5" d="M83.7,85.8L.0,41.0L77.8,.0L161.5,44.7L83.7,85.8z"/><path id="shape232" fill="#01acac" fill-rule="nonzero" stroke="#01acac" stroke-width=".25" d="M.0,5.1C-0.2,2.5,1.3,.2,3.3,.0C5.3,-0.2,7.2,1.8,7.4,4.5C7.6,7.1,6.2,9.4,4.1,9.6C2.1,9.7,.3,7.7,.0,5.1z" transform="matrix(0.999391,-0.034899,0.034899,0.999391,71.260402,88.550650)"/><path id="shape233" fill="#76d7d7" fill-rule="nonzero" stroke="#76d7d7" stroke-width=".48" d="M.0,4.1C-0.2,2.0,1.0,.1,2.6,.0C4.3,-0.1,5.7,1.5,5.9,3.6C6.1,5.7,4.9,7.5,3.3,7.6C1.7,7.8,.2,6.2,.0,4.1z" transform="matrix(0.999391,-0.034899,0.034899,0.999391,72.046701,89.492453)"/><path id="shape234" fill="#fff" fill-opacity=".29" fill-rule="nonzero" d="M.0,3.5C-0.1,2.0,.4,.7,1.3,.0C1.3,.0,4.9,6.3,4.9,6.3C4.4,6.7,3.9,7.0,3.3,7.0C1.7,7.2,.2,5.6,.0,3.5z" transform="matrix(0.999391,-0.034899,0.034899,0.999391,72.030925,90.091571)"/><path id="shape235" fill="none" stroke="#000" stroke-dasharray="11 5 2.5 5 2.5 5" stroke-width="1" d="M.0,36.6L69.2,.0" transform="translate(88.231100,55.531600)"/><path id="shape236" fill="none" stroke="#000" stroke-dasharray="11 5 2.5 5 2.5 5" stroke-width="1" d="M.0,36.6L69.2,.0" transform="translate(88.231100,59.423200)"/><g id="group237" transform="translate(9.026500,50.424700)"><path id="shape238" fill="#fff" fill-rule="nonzero" stroke="#fff" stroke-width="1" d="M.0,.0L20.3,10.7L20.3,21.8L.0,10.7L.0,.0z"/><path id="shape239" fill="#5fb7f1" fill-rule="nonzero" stroke="#5fb7f1" stroke-width="1" d="M.0,.0L18.4,9.8L18.4,18.3L.0,8.3L.0,.0z" transform="translate(0.845880,1.739420)"/><path id="shape240" fill="#fff" fill-opacity=".29" fill-rule="nonzero" d="M.0,.0L17.6,9.2L17.6,16.9L.0,7.5L.0,.0z" transform="translate(1.273400,2.436220)"/></g><g id="group241" transform="translate(39.339700,67.473700)"><path id="shape242" fill="#fff" fill-rule="nonzero" stroke="#fff" stroke-width="1" d="M.0,.0L20.3,10.7L20.3,21.8L.0,10.7L.0,.0z"/><path id="shape243" fill="#5fb7f1" fill-rule="nonzero" stroke="#5fb7f1" stroke-width="1" d="M.0,.0L18.4,9.8L18.4,18.3L.0,8.3L.0,.0z" transform="translate(0.845880,1.739420)"/><path id="shape244" fill="#fff" fill-opacity=".29" fill-rule="nonzero" d="M.0,.0L17.6,9.2L17.6,16.9L.0,7.5L.0,.0z" transform="translate(1.273400,2.436220)"/></g></g><g id="group245"><path id="shape246" fill="#d6d8df" fill-rule="nonzero" stroke="#d6d8df" stroke-width=".5" d="M.0,.0L83.7,44.8L83.7,66.4L.0,21.6L.0,.0z" transform="translate(0.000000,41.030800)"/><path id="shape247" fill="#caccd3" fill-rule="nonzero" stroke="#caccd3" stroke-width=".5" d="M.0,.0L77.8,41.1L77.8,62.8L.0,21.6L.0,.0z" transform="matrix(-1.000000,0.000000,0.000000,1.000000,161.500300,44.670600)"/><path id="shape248" fill="#e2e4e9" fill-rule="nonzero" stroke="#e2e4e9" stroke-width=".5" d="M83.7,85.8L.0,41.0L77.8,.0L161.5,44.7L83.7,85.8z"/><path id="shape249" fill="#01acac" fill-rule="nonzero" stroke="#01acac" stroke-width=".25" d="M.0,5.1C-0.2,2.5,1.3,.2,3.3,.0C5.3,-0.2,7.2,1.8,7.4,4.5C7.6,7.1,6.2,9.4,4.1,9.6C2.1,9.7,.3,7.7,.0,5.1z" transform="matrix(0.999391,-0.034899,0.034899,0.999391,71.260402,88.550650)"/><path id="shape250" fill="#76d7d7" fill-rule="nonzero" stroke="#76d7d7" stroke-width=".48" d="M.0,4.1C-0.2,2.0,1.0,.1,2.6,.0C4.3,-0.1,5.7,1.5,5.9,3.6C6.1,5.7,4.9,7.5,3.3,7.6C1.7,7.8,.2,6.2,.0,4.1z" transform="matrix(0.999391,-0.034899,0.034899,0.999391,72.046701,89.492453)"/><path id="shape251" fill="#fff" fill-opacity=".29" fill-rule="nonzero" d="M.0,3.5C-0.1,2.0,.4,.7,1.3,.0C1.3,.0,4.9,6.3,4.9,6.3C4.4,6.7,3.9,7.0,3.3,7.0C1.7,7.2,.2,5.6,.0,3.5z" transform="matrix(0.999391,-0.034899,0.034899,0.999391,72.030925,90.091571)"/><path id="shape252" fill="none" stroke="#000" stroke-dasharray="11 5 2.5 5 2.5 5" stroke-width="1" d="M.0,36.6L69.2,.0" transform="translate(88.231100,55.531600)"/><path id="shape253" fill="none" stroke="#000" stroke-dasharray="11 5 2.5 5 2.5 5" stroke-width="1" d="M.0,36.6L69.2,.0" transform="translate(88.231100,59.423200)"/><g id="group254" transform="translate(9.026500,50.424700)"><path id="shape255" fill="#fff" fill-rule="nonzero" stroke="#fff" stroke-width="1" d="M.0,.0L20.3,10.7L20.3,21.8L.0,10.7L.0,.0z"/><path id="shape256" fill="#5fb7f1" fill-rule="nonzero" stroke="#5fb7f1" stroke-width="1" d="M.0,.0L18.4,9.8L18.4,18.3L.0,8.3L.0,.0z" transform="translate(0.845880,1.739420)"/><path id="shape257" fill="#fff" fill-opacity=".29" fill-rule="nonzero" d="M.0,.0L17.6,9.2L17.6,16.9L.0,7.5L.0,.0z" transform="translate(1.273400,2.436220)"/></g><g id="group258" transform="translate(39.339700,67.473700)"><path id="shape259" fill="#fff" fill-rule="nonzero" stroke="#fff" stroke-width="1" d="M.0,.0L20.3,10.7L20.3,21.8L.0,10.7L.0,.0z"/><path id="shape260" fill="#5fb7f1" fill-rule="nonzero" stroke="#5fb7f1" stroke-width="1" d="M.0,.0L18.4,9.8L18.4,18.3L.0,8.3L.0,.0z" transform="translate(0.845880,1.739420)"/><path id="shape261" fill="#fff" fill-opacity=".29" fill-rule="nonzero" d="M.0,.0L17.6,9.2L17.6,16.9L.0,7.5L.0,.0z" transform="translate(1.273400,2.436220)"/></g></g></g><g id="shape262"><text xml:space="preserve" style="fill:#5769bc;font-family:微软雅黑;font-size:20pt" transform="translate(1368.757000,180.000000)"><tspan x="26.7" y="44.5">Relay Sever 2</tspan></text></g><path id="shape263" fill="#8ce0d2" fill-rule="nonzero" stroke="#379e90" stroke-dasharray="11 5 2.5 5" stroke-width="2" d="M909.2,6.0L909.2,.0L.0,.0L.0,6.0L909.2,6.0z" transform="matrix(0.866025,-0.500000,0.500000,0.866025,642.999655,589.796924)"/><g id="shape264"><path fill="none" stroke="#e16e6a" stroke-width="4" d="M.0,.0L-348.3,-377.4" transform="translate(810.447000,586.000000)"/><path fill="#e16e6a" stroke="#e16e6a" stroke-linecap="round" stroke-width="1" d="M-352.7,-373.4L-356.4,-386.3L-343.9,-381.5L-352.7,-373.4" transform="translate(810.447000,586.000000)"/></g><g id="shape265"><path fill="none" stroke="#e16e6a" stroke-width="4" d="M.0,.0L533.1,310.3" transform="translate(534.750000,158.597000)"/><path fill="#e16e6a" stroke="#e16e6a" stroke-linecap="round" stroke-width="1" d="M536.1,305.1L543.5,316.4L530.1,315.5L536.1,305.1" transform="translate(534.750000,158.597000)"/></g><g id="shape266"><path fill="none" stroke="#accfff" stroke-width="4" d="M.0,.0L-21.4,-184.1" transform="translate(1536.950000,586.000000)"/><path fill="#accfff" stroke="#accfff" stroke-linecap="round" stroke-width="1" d="M-27.3,-183.4L-22.7,-196.0L-15.4,-184.8L-27.3,-183.4" transform="translate(1536.950000,586.000000)"/></g><g id="shape267"><path fill="none" stroke="#accfff" stroke-width="4" d="M.0,.0L-165.5,106.8" transform="translate(1415.240000,361.472000)"/><path fill="#accfff" stroke="#accfff" stroke-linecap="round" stroke-width="1" d="M-162.2,111.9L-175.5,113.3L-168.7,101.8L-162.2,111.9" transform="translate(1415.240000,361.472000)"/></g><g id="shape268"><text xml:space="preserve" style="fill:#379e90;font-family:微软雅黑;font-size:18pt;font-weight:700" transform="translate(586.000000,75.745000)"><tspan x="31.8" y="48.5">Beijing</tspan></text></g><g id="shape269"><text xml:space="preserve" style="fill:#379e90;font-family:微软雅黑;font-size:18pt;font-weight:700" transform="translate(1153.000000,328.000000)"><tspan x="11.5" y="48.5">Shanghai</tspan></text></g><g id="shape270"><text xml:space="preserve" style="fill:#e16e6a;font-family:微软雅黑;font-size:11pt;font-weight:700" transform="translate(750.759000,451.095000)"><tspan x="20" y="20">500ms</tspan></text></g><g id="shape271"><text xml:space="preserve" style="fill:#e16e6a;font-family:微软雅黑;font-size:11pt;font-weight:700" transform="translate(938.499000,430.150000)"><tspan x="20" y="20">500ms</tspan></text></g><g id="shape272"><text xml:space="preserve" style="fill:#6a7fe1;font-family:微软雅黑;font-size:11pt;font-weight:700" transform="translate(1323.000000,416.745000)"><tspan x="24.5" y="20">20ms</tspan></text></g><g id="shape273"><text xml:space="preserve" style="fill:#6a7fe1;font-family:微软雅黑;font-size:11pt;font-weight:700" transform="translate(1436.450000,483.745000)"><tspan x="24.5" y="20">20ms</tspan></text></g></g></svg>