<svg xmlns="http://www.w3.org/2000/svg" xmlns:ev="http://www.w3.org/2001/xml-events" xmlns:xlink="http://www.w3.org/1999/xlink" width="945.882" height="406.003" class="st19" color-interpolation-filters="sRGB" viewBox="0 0 709.411 304.502" xml:space="preserve"><style type="text/css">.st1,.st2{fill:#fff;stroke:#000;stroke-linecap:round;stroke-linejoin:round;stroke-width:.24}.st2{stroke:none}.st3{fill:#000;font-family:Cascadia Code;font-size:.833336em;font-weight:700}.st4{fill:red;fill-opacity:.2;stroke:red;stroke-linecap:round;stroke-linejoin:round;stroke-opacity:.7;stroke-width:2}.st5,.st6{stroke:#000}.st5{marker-end:url(#mrkr4-24);marker-start:url(#mrkr4-22);stroke-linecap:round;stroke-linejoin:round;stroke-width:.75}.st6{fill:#000;fill-opacity:1;stroke-opacity:1;stroke-width:.22935779816514}.st7{fill:#9eccf5;fill-opacity:.95;stroke-linecap:butt;stroke-width:.0351562}.st7,.st8,.st9{stroke:none}.st8{fill:#48a2ef;fill-opacity:.95;stroke-linecap:butt;stroke-width:.0351562}.st9{fill:none;stroke-linecap:round;stroke-linejoin:round;stroke-width:.75}.st10{fill:#000;font-family:Cascadia Code;font-size:1.5em}.st10,.st11{font-weight:700}.st11,.st12{fill:#000;font-family:Cascadia Code;font-size:1.00001em}.st13{font-size:1em}.st14{stroke:#000;stroke-linecap:round;stroke-linejoin:round;stroke-width:.75}.st15,.st16{stroke:#00b0f0}.st15{marker-end:url(#mrkr4-180);stroke-linecap:round;stroke-linejoin:round;stroke-width:2}.st16{fill:#00b0f0;fill-opacity:1;stroke-opacity:1;stroke-width:.44247787610619}.st17{fill:#fff;stroke:none;stroke-linecap:butt;stroke-width:7.2}.st18{fill:#0070c0;font-family:Cascadia Code;font-size:.666664em}.st19{fill:none;fill-rule:evenodd;font-size:12px;overflow:visible;stroke-linecap:square;stroke-miterlimit:3}</style><defs id="Markers"><g id="lend4"><path d="M 2 1 L 0 0 L 2 -1 L 2 1" style="stroke:none"/></g><marker id="mrkr4-22" class="st6" markerUnits="strokeWidth" orient="auto" overflow="visible" refX="8.24"><use transform="scale(4.36)" xlink:href="#lend4"/></marker><marker id="mrkr4-24" class="st6" markerUnits="strokeWidth" orient="auto" overflow="visible" refX="-8.72"><use transform="scale(-4.36,-4.36)" xlink:href="#lend4"/></marker><marker id="mrkr4-180" class="st16" markerUnits="strokeWidth" orient="auto" overflow="visible" refX="-4.52"><use transform="scale(-2.26,-2.26)" xlink:href="#lend4"/></marker></defs><g><title>页-1</title><g id="shape1-1" transform="translate(120.23,-101.705)"><title>Rounded Rectangle.19</title><path d="M9.44 304.5 L132.11 304.5 A9.43657 9.43657 -180 0 0 141.55 295.07 L141.55 248.84 A9.43657 9.43657 -180 0 0 132.11 239.4 L9.44 239.4 A9.43657 9.43657 -180 0 0 0 248.84 L0 295.07 A9.43657 9.43657 -180 0 0 9.44 304.5 Z" class="st1"/></g><g id="shape2-3" transform="translate(169.613,-90.3667)"><title>圆角矩形.380</title><desc>LAN 2</desc><path d="M0.9 304.5 L41.89 304.5 a0.898055 0.898055 -180 0 0 0.898069 -0.898069 L42.78 278.27 a0.898055 0.898055 -180 0 0 -0.898069 -0.898069 L0.9 277.38 a0.898055 0.898055 -180 0 0 -0.898069 0.898069 L0 303.6 a0.898055 0.898055 -180 0 0 0.898069 0.898069 Z" class="st2"/><text x="6.74" y="293.94" class="st3">LAN 2</text></g><g id="shape3-6" transform="translate(122.973,-223.69)"><title>圆角矩形.19</title><path d="M9.44 304.5 L132.11 304.5 A9.43657 9.43657 -180 0 0 141.55 295.07 L141.55 248.84 A9.43657 9.43657 -180 0 0 132.11 239.4 L9.44 239.4 A9.43657 9.43657 -180 0 0 0 248.84 L0 295.07 A9.43657 9.43657 -180 0 0 9.44 304.5 Z" class="st1"/></g><g id="shape4-8" transform="translate(130.051,-239.965)"><title>圆形.10</title><path d="M0 290.94 A17.6938 13.5629 0 1 1 35.39 290.94 A17.6938 13.5629 0 1 1 0 290.94 Z" class="st4"/></g><g id="shape5-10" transform="translate(222.059,-239.965)"><title>圆形.11</title><path d="M0 290.94 A17.6938 13.5629 0 1 1 35.39 290.94 A17.6938 13.5629 0 1 1 0 290.94 Z" class="st1"/></g><g id="shape6-12" transform="translate(130.051,-112.474)"><title>圆形.12</title><path d="M0 290.94 A17.6938 13.5629 0 1 1 35.39 290.94 A17.6938 13.5629 0 1 1 0 290.94 Z" class="st1"/></g><g id="shape7-14" transform="translate(222.059,-112.474)"><title>圆形.13</title><path d="M0 290.94 A17.6938 13.5629 0 1 1 35.39 290.94 A17.6938 13.5629 0 1 1 0 290.94 Z" class="st4"/></g><g id="shape8-16" transform="translate(165.439,-246.442)"><title>动态连接线.14</title><path d="M6.18 297.42 L6.54 297.42 L50.08 297.42" class="st5"/></g><g id="shape9-25" transform="translate(232.666,-239.965)"><title>动态连接线.15</title><path d="M7.09 310.68 L7.09 311.04 L7.09 398.33" class="st5"/></g><g id="shape10-32" transform="translate(140.658,-239.965)"><title>动态连接线.16</title><path d="M7.09 310.68 L7.09 311.04 L7.09 398.33" class="st5"/></g><g id="group11-39" transform="translate(332.737,-177.16)"><title>工作表.11</title><g id="shape12-40" transform="translate(0.02625,5.68434E-14)"><title>工作表.12</title><path d="M29.51 274.97 C30.48 275.95 30.47 277.55 29.47 278.55 L19.53 288.5 C18.53 289.5 16.93 289.51 15.95 288.54 C14.98 287.56 14.99 285.96 15.99 284.96 L25.93 275.01 C26.93 274.01 28.53 273.99 29.51 274.97 L29.51 274.97 ZM14.53 289.96 C15.51 290.94 15.49 292.54 14.49 293.54 L4.55 303.49 C3.55 304.49 1.95 304.5 0.98 303.53 C0 302.55 0.02 300.95 1.01 299.95 L10.96 290 C11.95 289 13.55 288.98 14.53 289.96 Z" class="st7"/></g><g id="shape13-42" transform="translate(1.15907E-13,-0.018)"><title>工作表.13</title><path d="M29.49 303.53 C28.51 304.5 26.91 304.49 25.92 303.49 L1.01 278.57 C0.02 277.57 0 275.97 0.98 274.99 C1.95 274.01 3.55 274.03 4.55 275.03 L29.45 299.95 C30.45 300.95 30.46 302.55 29.49 303.53 L29.49 303.53 Z" class="st8"/></g></g><g id="shape14-44" transform="translate(172.357,-275.839)"><title>圆角矩形.174</title><desc>LAN 1</desc><path d="M0.9 304.5 L41.89 304.5 a0.898055 0.898055 -180 0 0 0.898069 -0.898069 L42.78 278.27 a0.898055 0.898055 -180 0 0 -0.898069 -0.898069 L0.9 277.38 a0.898055 0.898055 -180 0 0 -0.898069 0.898069 L0 303.6 a0.898055 0.898055 -180 0 0 0.898069 0.898069 Z" class="st2"/><text x="6.74" y="293.94" class="st3">LAN 1</text></g><g id="shape15-47" transform="translate(0.375,-239.753)"><title>工作表.15</title><desc>Relay</desc><rect width="108.425" height="30.509" x="0" y="273.994" class="st9"/><text x="27.85" y="294.65" class="st10">Relay</text></g><g id="shape16-50" transform="translate(139.536,-118.713)"><title>工作表.16</title><desc>A</desc><rect width="16.563" height="14.726" x="0" y="289.777" class="st9"/><text x="4.77" y="300.74" class="st11">A</text></g><g id="shape17-53" transform="translate(225.021,-118.713)"><title>工作表.17</title><desc>R2</desc><rect width="30.51" height="14.726" x="0" y="289.777" class="st9"/><text x="8.22" y="300.74" class="st11">R2</text></g><g id="shape18-56" transform="translate(231.399,-245.72)"><title>工作表.18</title><desc>B</desc><rect width="16.563" height="14.726" x="0" y="289.777" class="st9"/><text x="4.77" y="300.74" class="st11">B</text></g><g id="shape19-59" transform="translate(311.014,-13.8312)"><title>工作表.19</title><desc>A disconnect from R1</desc><rect width="159.758" height="42.52" x="0" y="261.983" class="st9"/><text x="9.57" y="286.84" class="st12">A disconnect from R1</text></g><g id="shape20-62" transform="translate(515.195,-3.21181)"><title>工作表.20</title><desc>A use R2 as the new Realy to connect B sustaining Service:Lin...</desc><rect width="193.842" height="58.227" x="0" y="246.275" class="st9"/><text x="9.03" y="264.59" class="st12">A use R2 as the new Realy <tspan x="12.55" class="st13" dy="1.2em">to connect B sustaining </tspan><tspan x="47.7" class="st13" dy="1.2em">Service:Linkab</tspan></text></g><g id="shape21-67" transform="translate(132.148,-245.996)"><title>工作表.21</title><desc>R1</desc><rect width="30.51" height="14.726" x="0" y="289.777" class="st9"/><text x="8.22" y="300.74" class="st11">R1</text></g><g id="shape22-70" transform="translate(320.117,-103.123)"><title>Rounded Rectangle.381</title><path d="M9.44 304.5 L132.11 304.5 A9.43657 9.43657 -180 0 0 141.55 295.07 L141.55 248.84 A9.43657 9.43657 -180 0 0 132.11 239.4 L9.44 239.4 A9.43657 9.43657 -180 0 0 0 248.84 L0 295.07 A9.43657 9.43657 -180 0 0 9.44 304.5 Z" class="st1"/></g><g id="shape23-72" transform="translate(369.501,-90.3666)"><title>圆角矩形.382</title><desc>LAN 2</desc><path d="M0.9 304.5 L41.89 304.5 a0.898055 0.898055 -180 0 0 0.898069 -0.898069 L42.78 278.27 a0.898055 0.898055 -180 0 0 -0.898069 -0.898069 L0.9 277.38 a0.898055 0.898055 -180 0 0 -0.898069 0.898069 L0 303.6 a0.898055 0.898055 -180 0 0 0.898069 0.898069 Z" class="st2"/><text x="6.74" y="293.94" class="st3">LAN 2</text></g><g id="shape24-75" transform="translate(322.861,-225.107)"><title>圆角矩形.383</title><path d="M9.44 304.5 L132.11 304.5 A9.43657 9.43657 -180 0 0 141.55 295.07 L141.55 248.84 A9.43657 9.43657 -180 0 0 132.11 239.4 L9.44 239.4 A9.43657 9.43657 -180 0 0 0 248.84 L0 295.07 A9.43657 9.43657 -180 0 0 9.44 304.5 Z" class="st1"/></g><g id="shape25-77" transform="translate(329.939,-241.383)"><title>圆形.384</title><path d="M0 290.94 A17.6938 13.5629 0 1 1 35.39 290.94 A17.6938 13.5629 0 1 1 0 290.94 Z" class="st4"/></g><g id="shape26-79" transform="translate(421.947,-241.383)"><title>圆形.385</title><path d="M0 290.94 A17.6938 13.5629 0 1 1 35.39 290.94 A17.6938 13.5629 0 1 1 0 290.94 Z" class="st1"/></g><g id="shape27-81" transform="translate(329.939,-113.891)"><title>圆形.386</title><path d="M0 290.94 A17.6938 13.5629 0 1 1 35.39 290.94 A17.6938 13.5629 0 1 1 0 290.94 Z" class="st1"/></g><g id="shape28-83" transform="translate(421.947,-113.891)"><title>圆形.387</title><path d="M0 290.94 A17.6938 13.5629 0 1 1 35.39 290.94 A17.6938 13.5629 0 1 1 0 290.94 Z" class="st4"/></g><g id="shape29-85" transform="translate(365.327,-247.859)"><title>动态连接线.388</title><path d="M6.18 297.42 L6.54 297.42 L50.08 297.42" class="st5"/></g><g id="shape30-92" transform="translate(432.554,-241.383)"><title>动态连接线.389</title><path d="M7.09 310.68 L7.09 311.04 L7.09 398.33" class="st5"/></g><g id="shape31-99" transform="translate(340.546,-241.383)"><title>Dynamic connector.16</title><path d="M7.09 304.5 L7.09 404.87" class="st14"/></g><g id="shape32-102" transform="translate(372.245,-277.257)"><title>圆角矩形.391</title><desc>LAN 1</desc><path d="M0.9 304.5 L41.89 304.5 a0.898055 0.898055 -180 0 0 0.898069 -0.898069 L42.78 278.27 a0.898055 0.898055 -180 0 0 -0.898069 -0.898069 L0.9 277.38 a0.898055 0.898055 -180 0 0 -0.898069 0.898069 L0 303.6 a0.898055 0.898055 -180 0 0 0.898069 0.898069 Z" class="st2"/><text x="6.74" y="293.94" class="st3">LAN 1</text></g><g id="shape33-105" transform="translate(339.424,-120.13)"><title>工作表.33</title><desc>A</desc><rect width="16.563" height="14.726" x="0" y="289.777" class="st9"/><text x="4.77" y="300.74" class="st11">A</text></g><g id="shape34-108" transform="translate(424.909,-120.13)"><title>工作表.34</title><desc>R2</desc><rect width="30.51" height="14.726" x="0" y="289.777" class="st9"/><text x="8.22" y="300.74" class="st11">R2</text></g><g id="shape35-111" transform="translate(431.287,-247.137)"><title>工作表.35</title><desc>B</desc><rect width="16.563" height="14.726" x="0" y="289.777" class="st9"/><text x="4.77" y="300.74" class="st11">B</text></g><g id="shape36-114" transform="translate(332.036,-247.413)"><title>工作表.36</title><desc>R1</desc><rect width="30.51" height="14.726" x="0" y="289.777" class="st9"/><text x="8.22" y="300.74" class="st11">R1</text></g><g id="shape37-117" transform="translate(532.716,-103.123)"><title>Rounded Rectangle.396</title><path d="M9.44 304.5 L132.11 304.5 A9.43657 9.43657 -180 0 0 141.55 295.07 L141.55 248.84 A9.43657 9.43657 -180 0 0 132.11 239.4 L9.44 239.4 A9.43657 9.43657 -180 0 0 0 248.84 L0 295.07 A9.43657 9.43657 -180 0 0 9.44 304.5 Z" class="st1"/></g><g id="shape38-119" transform="translate(584.844,-90.9769)"><title>圆角矩形.397</title><desc>LAN 2</desc><path d="M0.9 304.5 L41.89 304.5 a0.898055 0.898055 -180 0 0 0.898069 -0.898069 L42.78 278.27 a0.898055 0.898055 -180 0 0 -0.898069 -0.898069 L0.9 277.38 a0.898055 0.898055 -180 0 0 -0.898069 0.898069 L0 303.6 a0.898055 0.898055 -180 0 0 0.898069 0.898069 Z" class="st2"/><text x="6.74" y="293.94" class="st3">LAN 2</text></g><g id="shape39-122" transform="translate(535.46,-225.107)"><title>圆角矩形.398</title><path d="M9.44 304.5 L132.11 304.5 A9.43657 9.43657 -180 0 0 141.55 295.07 L141.55 248.84 A9.43657 9.43657 -180 0 0 132.11 239.4 L9.44 239.4 A9.43657 9.43657 -180 0 0 0 248.84 L0 295.07 A9.43657 9.43657 -180 0 0 9.44 304.5 Z" class="st1"/></g><g id="shape40-124" transform="translate(542.537,-241.383)"><title>圆形.399</title><path d="M0 290.94 A17.6938 13.5629 0 1 1 35.39 290.94 A17.6938 13.5629 0 1 1 0 290.94 Z" class="st4"/></g><g id="shape41-126" transform="translate(634.545,-241.383)"><title>圆形.400</title><path d="M0 290.94 A17.6938 13.5629 0 1 1 35.39 290.94 A17.6938 13.5629 0 1 1 0 290.94 Z" class="st1"/></g><g id="shape42-128" transform="translate(542.537,-113.891)"><title>圆形.401</title><path d="M0 290.94 A17.6938 13.5629 0 1 1 35.39 290.94 A17.6938 13.5629 0 1 1 0 290.94 Z" class="st1"/></g><g id="shape43-130" transform="translate(634.545,-113.891)"><title>圆形.402</title><path d="M0 290.94 A17.6938 13.5629 0 1 1 35.39 290.94 A17.6938 13.5629 0 1 1 0 290.94 Z" class="st4"/></g><g id="shape44-132" transform="translate(577.925,-247.859)"><title>动态连接线.403</title><path d="M6.18 297.42 L6.54 297.42 L50.08 297.42" class="st5"/></g><g id="shape45-139" transform="translate(645.153,-241.383)"><title>动态连接线.404</title><path d="M7.09 310.68 L7.09 311.04 L7.09 398.33" class="st5"/></g><g id="shape46-146" transform="translate(584.844,-277.257)"><title>圆角矩形.406</title><desc>LAN 1</desc><path d="M0.9 304.5 L41.89 304.5 a0.898055 0.898055 -180 0 0 0.898069 -0.898069 L42.78 278.27 a0.898055 0.898055 -180 0 0 -0.898069 -0.898069 L0.9 277.38 a0.898055 0.898055 -180 0 0 -0.898069 0.898069 L0 303.6 a0.898055 0.898055 -180 0 0 0.898069 0.898069 Z" class="st2"/><text x="6.74" y="293.94" class="st3">LAN 1</text></g><g id="shape47-149" transform="translate(552.023,-120.13)"><title>工作表.47</title><desc>A</desc><rect width="16.563" height="14.726" x="0" y="289.777" class="st9"/><text x="4.77" y="300.74" class="st11">A</text></g><g id="shape48-152" transform="translate(637.507,-120.13)"><title>工作表.48</title><desc>R2</desc><rect width="30.51" height="14.726" x="0" y="289.777" class="st9"/><text x="8.22" y="300.74" class="st11">R2</text></g><g id="shape49-155" transform="translate(643.885,-247.137)"><title>工作表.49</title><desc>B</desc><rect width="16.563" height="14.726" x="0" y="289.777" class="st9"/><text x="4.77" y="300.74" class="st11">B</text></g><g id="shape50-158" transform="translate(544.635,-247.413)"><title>工作表.50</title><desc>R1</desc><rect width="30.51" height="14.726" x="0" y="289.777" class="st9"/><text x="8.22" y="300.74" class="st11">R1</text></g><g id="shape51-161" transform="translate(365.327,-120.367)"><title>动态连接线</title><path d="M6.18 297.42 L6.54 297.42 L50.08 297.42" class="st5"/></g><g id="shape52-168" transform="translate(577.925,-120.367)"><title>动态连接线.412</title><path d="M6.18 297.42 L6.54 297.42 L50.08 297.42" class="st5"/></g><g id="shape53-175" transform="translate(572.744,-137.046)"><title>动态连接线.413</title><desc>Linkab</desc><path d="M0 304.5 L62.23 203.88" class="st15"/><rect width="28.125" height="9.6" x="19.428" y="245.549" class="st17"/><text x="19.43" y="252.75" class="st18">Linkab</text></g><g id="shape54-183" transform="translate(160.258,-135.628)"><title>动态连接线.414</title><desc>Linkab</desc><path d="M0 304.5 L62.23 203.88" class="st15"/><rect width="28.125" height="9.6" x="19.428" y="245.549" class="st17"/><text x="19.43" y="252.75" class="st18">Linkab</text></g><g id="shape55-190" transform="translate(109.2,-0.375)"><title>工作表.55</title><desc>A use R1 as Realy to connect B providing Service:Linkab</desc><rect width="163.61" height="58.227" x="0" y="246.275" class="st9"/><text x="11.49" y="264.59" class="st12">A use R1 as Realy to <tspan x="11.49" class="st13" dy="1.2em">connect B providing </tspan><tspan x="32.59" class="st13" dy="1.2em">Service:Linkab</tspan></text></g></g></svg>