<svg xmlns="http://www.w3.org/2000/svg" xmlns:ev="http://www.w3.org/2001/xml-events" xmlns:xlink="http://www.w3.org/1999/xlink" width="894.047" height="379.295" class="st10" color-interpolation-filters="sRGB" viewBox="0 0 670.535 284.471" xml:space="preserve"><style type="text/css">.st1,.st2{stroke:#000}.st1,.st2,.st3{stroke-linecap:round;stroke-linejoin:round}.st1{fill:#fff;stroke-width:.24}.st2,.st3{stroke-width:.75}.st3{fill:none;stroke:none}.st4,.st5{fill:#000;font-family:Cascadia Code}.st4{font-size:1.5em;font-weight:700}.st5{font-size:1.00001em}.st6{font-size:1em}.st7{fill:#000;font-family:Cascadia Code;font-size:1.00001em;font-weight:700}.st8{fill:#fff;stroke:none;stroke-linecap:round;stroke-linejoin:round;stroke-width:.24}.st9{fill:#000;font-family:Cascadia Code;font-size:.833336em;font-weight:700}.st10{fill:none;fill-rule:evenodd;font-size:12px;overflow:visible;stroke-linecap:square;stroke-miterlimit:3}</style><g><title>页-1</title><g id="shape1-1" transform="translate(528.864,-92.2997)"><title>圆角矩形.142</title><path d="M9.44 284.47 L132.11 284.47 A9.43657 9.43657 -180 0 0 141.55 275.03 L141.55 177.4 A9.43657 9.43657 -180 0 0 132.11 167.97 L9.44 167.97 A9.43657 9.43657 -180 0 0 0 177.4 L0 275.03 A9.43657 9.43657 -180 0 0 9.44 284.47 Z" class="st1"/></g><g id="shape2-3" transform="translate(316.883,-92.2997)"><title>圆角矩形.140</title><path d="M9.44 284.47 L132.11 284.47 A9.43657 9.43657 -180 0 0 141.55 275.03 L141.55 177.4 A9.43657 9.43657 -180 0 0 132.11 167.97 L9.44 167.97 A9.43657 9.43657 -180 0 0 0 177.4 L0 275.03 A9.43657 9.43657 -180 0 0 9.44 284.47 Z" class="st1"/></g><g id="shape3-5" transform="translate(118.367,-91.6894)"><title>圆角矩形.136</title><path d="M9.44 284.47 L132.11 284.47 A9.43657 9.43657 -180 0 0 141.55 275.03 L141.55 177.4 A9.43657 9.43657 -180 0 0 132.11 167.97 L9.44 167.97 A9.43657 9.43657 -180 0 0 0 177.4 L0 275.03 A9.43657 9.43657 -180 0 0 9.44 284.47 Z" class="st1"/></g><g id="group4-7" transform="translate(118.367,-108.033)"><title>工作表.4</title><g id="shape5-8" transform="translate(0,-111.216)"><title>圆角矩形.19</title><path d="M9.44 284.47 L132.11 284.47 A9.43657 9.43657 -180 0 0 141.55 275.03 L141.55 228.81 A9.43657 9.43657 -180 0 0 132.11 219.37 L9.44 219.37 A9.43657 9.43657 -180 0 0 0 228.81 L0 275.03 A9.43657 9.43657 -180 0 0 9.44 284.47 Z" class="st1"/></g><g id="shape6-10" transform="translate(7.07754,-127.492)"><title>圆形</title><path d="M0 270.91 A17.6938 13.5629 0 1 1 35.39 270.91 A17.6938 13.5629 0 1 1 0 270.91 Z" class="st1"/></g><g id="shape7-12" transform="translate(99.0856,-127.492)"><title>圆形.11</title><path d="M0 270.91 A17.6938 13.5629 0 1 1 35.39 270.91 A17.6938 13.5629 0 1 1 0 270.91 Z" class="st1"/></g><g id="shape8-14" transform="translate(7.07754,5.68434E-14)"><title>圆形.12</title><path d="M0 270.91 A17.6938 13.5629 0 1 1 35.39 270.91 A17.6938 13.5629 0 1 1 0 270.91 Z" class="st1"/></g><g id="shape9-16" transform="translate(99.0856,5.68434E-14)"><title>圆形.13</title><path d="M0 270.91 A17.6938 13.5629 0 1 1 35.39 270.91 A17.6938 13.5629 0 1 1 0 270.91 Z" class="st1"/></g><g id="shape10-18" transform="translate(42.4652,-133.968)"><title>动态连接线</title><path d="M0 277.38 L56.62 277.38" class="st2"/></g><g id="shape11-21" transform="translate(109.693,-127.492)"><title>动态连接线.15</title><path d="M7.09 284.47 L7.09 384.84" class="st2"/></g><g id="shape12-24" transform="translate(17.6848,-127.492)"><title>动态连接线.16</title><path d="M7.09 284.47 L7.09 384.84" class="st2"/></g></g><g id="group13-27" transform="translate(316.538,-108.033)"><title>工作表.13</title><g id="shape14-28" transform="translate(0,-111.216)"><title>圆角矩形.19</title><path d="M9.44 284.47 L132.11 284.47 A9.43657 9.43657 -180 0 0 141.55 275.03 L141.55 228.81 A9.43657 9.43657 -180 0 0 132.11 219.37 L9.44 219.37 A9.43657 9.43657 -180 0 0 0 228.81 L0 275.03 A9.43657 9.43657 -180 0 0 9.44 284.47 Z" class="st1"/></g><g id="shape15-30" transform="translate(7.07754,-127.492)"><title>圆形</title><path d="M0 270.91 A17.6938 13.5629 0 1 1 35.39 270.91 A17.6938 13.5629 0 1 1 0 270.91 Z" class="st1"/></g><g id="shape16-32" transform="translate(99.0856,-127.492)"><title>圆形.11</title><path d="M0 270.91 A17.6938 13.5629 0 1 1 35.39 270.91 A17.6938 13.5629 0 1 1 0 270.91 Z" class="st1"/></g><g id="shape17-34" transform="translate(7.07754,5.68434E-14)"><title>圆形.12</title><path d="M0 270.91 A17.6938 13.5629 0 1 1 35.39 270.91 A17.6938 13.5629 0 1 1 0 270.91 Z" class="st1"/></g><g id="shape18-36" transform="translate(99.0856,5.68434E-14)"><title>圆形.13</title><path d="M0 270.91 A17.6938 13.5629 0 1 1 35.39 270.91 A17.6938 13.5629 0 1 1 0 270.91 Z" class="st1"/></g><g id="shape19-38" transform="translate(42.4652,-133.968)"><title>动态连接线</title><path d="M0 277.38 L56.62 277.38" class="st2"/></g><g id="shape20-41" transform="translate(109.693,-127.492)"><title>动态连接线.15</title><path d="M7.09 284.47 L7.09 384.84" class="st2"/></g><g id="shape21-44" transform="translate(17.6848,-127.492)"><title>动态连接线.16</title><path d="M7.09 284.47 L7.09 384.84" class="st2"/></g></g><g id="group22-47" transform="translate(528.864,-108.033)"><title>工作表.22</title><g id="shape23-48" transform="translate(0,-111.216)"><title>圆角矩形.19</title><path d="M9.44 284.47 L132.11 284.47 A9.43657 9.43657 -180 0 0 141.55 275.03 L141.55 228.81 A9.43657 9.43657 -180 0 0 132.11 219.37 L9.44 219.37 A9.43657 9.43657 -180 0 0 0 228.81 L0 275.03 A9.43657 9.43657 -180 0 0 9.44 284.47 Z" class="st1"/></g><g id="shape24-50" transform="translate(7.07754,-127.492)"><title>圆形</title><path d="M0 270.91 A17.6938 13.5629 0 1 1 35.39 270.91 A17.6938 13.5629 0 1 1 0 270.91 Z" class="st1"/></g><g id="shape25-52" transform="translate(99.0856,-127.492)"><title>圆形.11</title><path d="M0 270.91 A17.6938 13.5629 0 1 1 35.39 270.91 A17.6938 13.5629 0 1 1 0 270.91 Z" class="st1"/></g><g id="shape26-54" transform="translate(7.07754,5.68434E-14)"><title>圆形.12</title><path d="M0 270.91 A17.6938 13.5629 0 1 1 35.39 270.91 A17.6938 13.5629 0 1 1 0 270.91 Z" class="st1"/></g><g id="shape27-56" transform="translate(99.0856,5.68434E-14)"><title>圆形.13</title><path d="M0 270.91 A17.6938 13.5629 0 1 1 35.39 270.91 A17.6938 13.5629 0 1 1 0 270.91 Z" class="st1"/></g><g id="shape28-58" transform="translate(42.4652,-133.968)"><title>动态连接线</title><path d="M0 277.38 L56.62 277.38" class="st2"/></g><g id="shape29-61" transform="translate(109.693,-127.492)"><title>动态连接线.15</title><path d="M7.09 284.47 L7.09 384.84" class="st2"/></g><g id="shape30-64" transform="translate(17.6848,-127.492)"><title>动态连接线.16</title><path d="M7.09 284.47 L7.09 384.84" class="st2"/></g></g><g id="shape31-67" transform="translate(369.62,-164.726)"><title>圆形.114</title><path d="M0 270.91 A17.6938 13.5629 0 1 1 35.39 270.91 A17.6938 13.5629 0 1 1 0 270.91 Z" class="st1"/></g><g id="shape32-69" transform="translate(374.801,-168.697)"><title>动态连接线.115</title><path d="M0 284.47 L-20.98 321.98" class="st2"/></g><g id="shape33-72" transform="translate(581.946,-164.726)"><title>圆形.116</title><path d="M0 270.91 A17.6938 13.5629 0 1 1 35.39 270.91 A17.6938 13.5629 0 1 1 0 270.91 Z" class="st1"/></g><g id="shape34-74" transform="translate(612.153,-168.697)"><title>动态连接线.117</title><path d="M0 284.47 L20.98 321.98" class="st2"/></g><g id="shape35-77" transform="translate(587.127,-168.697)"><title>动态连接线.118</title><path d="M0 284.47 L-20.98 321.98" class="st2"/></g><g id="shape36-80" transform="translate(587.127,-187.88)"><title>动态连接线.119</title><path d="M0 284.47 L-20.98 232.86" class="st2"/></g><g id="shape37-83" transform="translate(612.153,-187.88)"><title>动态连接线.120</title><path d="M0 284.47 L20.98 232.86" class="st2"/></g><g id="shape38-86" transform="translate(171.449,-164.726)"><title>圆形.138</title><path d="M0 270.91 A17.6938 13.5629 0 1 1 35.39 270.91 A17.6938 13.5629 0 1 1 0 270.91 Z" class="st1"/></g><g id="shape39-88" transform="translate(571.33,-114.509)"><title>动态连接线.147</title><path d="M0 277.38 L56.62 277.38" class="st2"/></g><g id="shape40-91" transform="translate(0.375,-234.511)"><title>工作表.40</title><desc>MDNS</desc><rect width="108.425" height="30.509" x="0" y="253.962" class="st3"/><text x="33.12" y="274.62" class="st4">MDNS</text></g><g id="shape41-94" transform="translate(118.367,-0.375)"><title>工作表.41</title><desc>A node join the Edge Cluster wanting to know others</desc><rect width="141.551" height="64.189" x="0" y="220.282" class="st3"/><text x="18.04" y="234.38" class="st5">A node join the <tspan x="28.59" class="st6" dy="1.2em">Edge Cluster </tspan><tspan x="18.04" class="st6" dy="1.2em">wanting to know </tspan><tspan x="49.68" class="st6" dy="1.2em">others</tspan></text></g><g id="shape42-100" transform="translate(180.952,-170.395)"><title>工作表.42</title><desc>A</desc><rect width="16.563" height="14.726" x="0" y="269.745" class="st3"/><text x="4.77" y="280.71" class="st7">A</text></g><g id="shape43-103" transform="translate(340.742,-15.0295)"><title>工作表.43</title><desc>Mdns Advertise Discovery</desc><rect width="93.832" height="42.55" x="0" y="241.921" class="st3"/><text x="32.85" y="252.4" class="st5">Mdns <tspan x="15.28" class="st6" dy="1.2em">Advertise </tspan><tspan x="15.28" class="st6" dy="1.2em">Discovery</tspan></text></g><g id="shape44-108" transform="translate(399.827,-168.697)"><title>动态连接线.198</title><path d="M0 284.47 L20.98 321.98" class="st2"/></g><g id="shape45-111" transform="translate(543.038,-15.0596)"><title>工作表.45</title><desc>A node knows others in this cluster</desc><rect width="117.658" height="42.52" x="0" y="241.951" class="st3"/><text x="16.64" y="252.41" class="st5">A node knows <tspan x="9.61" class="st6" dy="1.2em">others in this </tspan><tspan x="34.22" class="st6" dy="1.2em">cluster</tspan></text></g><g id="shape46-116" transform="translate(379.377,-171.536)"><title>工作表.46</title><desc>A</desc><rect width="16.563" height="14.726" x="0" y="269.745" class="st3"/><text x="4.77" y="280.71" class="st7">A</text></g><g id="shape47-119" transform="translate(591.358,-170.926)"><title>工作表.47</title><desc>A</desc><rect width="16.563" height="14.726" x="0" y="269.745" class="st3"/><text x="4.77" y="280.71" class="st7">A</text></g><g id="shape48-122" transform="translate(167.751,-80.907)"><title>圆角矩形.418</title><desc>LAN 2</desc><path d="M0.9 284.47 L41.89 284.47 a0.898055 0.898055 -180 0 0 0.898069 -0.898069 L42.78 258.24 a0.898055 0.898055 -180 0 0 -0.898069 -0.898069 L0.9 257.35 a0.898055 0.898055 -180 0 0 -0.898069 0.898069 L0 283.57 a0.898055 0.898055 -180 0 0 0.898069 0.898069 Z" class="st8"/><text x="6.74" y="273.91" class="st9">LAN 2</text></g><g id="shape49-125" transform="translate(366.267,-80.907)"><title>圆角矩形.419</title><desc>LAN 2</desc><path d="M0.9 284.47 L41.89 284.47 a0.898055 0.898055 -180 0 0 0.898069 -0.898069 L42.78 258.24 a0.898055 0.898055 -180 0 0 -0.898069 -0.898069 L0.9 257.35 a0.898055 0.898055 -180 0 0 -0.898069 0.898069 L0 283.57 a0.898055 0.898055 -180 0 0 0.898069 0.898069 Z" class="st8"/><text x="6.74" y="273.91" class="st9">LAN 2</text></g><g id="shape50-128" transform="translate(578.248,-80.907)"><title>圆角矩形.420</title><desc>LAN 2</desc><path d="M0.9 284.47 L41.89 284.47 a0.898055 0.898055 -180 0 0 0.898069 -0.898069 L42.78 258.24 a0.898055 0.898055 -180 0 0 -0.898069 -0.898069 L0.9 257.35 a0.898055 0.898055 -180 0 0 -0.898069 0.898069 L0 283.57 a0.898055 0.898055 -180 0 0 0.898069 0.898069 Z" class="st8"/><text x="6.74" y="273.91" class="st9">LAN 2</text></g></g></svg>